<?xml version="1.0" encoding="UTF-8" standalone="no"?>
<!-- Generator: Adobe Illustrator 24.1.2, SVG Export Plug-In . SVG Version: 6.00 Build 0)  -->

<svg
   xmlns:dc="http://purl.org/dc/elements/1.1/"
   xmlns:cc="http://creativecommons.org/ns#"
   xmlns:rdf="http://www.w3.org/1999/02/22-rdf-syntax-ns#"
   xmlns:svg="http://www.w3.org/2000/svg"
   xmlns="http://www.w3.org/2000/svg"
   xmlns:sodipodi="http://sodipodi.sourceforge.net/DTD/sodipodi-0.dtd"
   xmlns:inkscape="http://www.inkscape.org/namespaces/inkscape"
   version="1.1"
   id="Camada_1"
   x="0px"
   y="0px"
   viewBox="0 0 719.97998 274.19"
   xml:space="preserve"
   sodipodi:docname="easyservice.svg"
   width="719.97998"
   height="274.19"
   inkscape:version="0.92.5 (2060ec1f9f, 2020-04-08)"><metadata
   id="metadata1389"><rdf:RDF><cc:Work
       rdf:about=""><dc:format>image/svg+xml</dc:format><dc:type
         rdf:resource="http://purl.org/dc/dcmitype/StillImage" /><dc:title></dc:title></cc:Work></rdf:RDF></metadata><defs
   id="defs1387" /><sodipodi:namedview
   pagecolor="#ffffff"
   bordercolor="#666666"
   borderopacity="1"
   objecttolerance="10"
   gridtolerance="10"
   guidetolerance="10"
   inkscape:pageopacity="0"
   inkscape:pageshadow="2"
   inkscape:window-width="1366"
   inkscape:window-height="740"
   id="namedview1385"
   showgrid="false"
   fit-margin-top="0"
   fit-margin-left="0"
   fit-margin-right="0"
   fit-margin-bottom="0"
   inkscape:zoom="0.21851852"
   inkscape:cx="47.26"
   inkscape:cy="137.09"
   inkscape:window-x="0"
   inkscape:window-y="28"
   inkscape:window-maximized="1"
   inkscape:current-layer="Camada_1" />
<style
   type="text/css"
   id="style1332">
	.st0{fill:#336699;}
</style>
<g
   id="g1368"
   transform="translate(-912.74,-402.9)"
   style="fill:#ffffff">
	<g
   id="g1340"
   style="fill:#ffffff">
		<path
   d="m 1615.24,583.5 c -9.64,0 -17.48,-8.3 -17.48,-18.5 0,-10.2 7.84,-18.5 17.48,-18.5 9.64,0 17.48,8.3 17.48,18.5 0,10.2 -7.84,18.5 -17.48,18.5 z m 0,-33.92 c -8.04,0 -14.57,6.92 -14.57,15.42 0,8.5 6.54,15.42 14.57,15.42 8.03,0 14.57,-6.92 14.57,-15.42 0.01,-8.5 -6.53,-15.42 -14.57,-15.42 z"
   id="path1334"
   inkscape:connector-curvature="0"
   style="fill:#ffffff" />
		<g
   id="g1338"
   style="fill:#ffffff">
			<path
   d="m 1622.78,562.18 c 0,2.93 -1.21,4.77 -3.62,5.54 l 4.39,6.45 h -3.6 l -4.01,-5.97 h -3.72 v 5.97 h -2.83 v -17.75 h 6.24 c 2.56,0 4.39,0.46 5.49,1.37 1.1,0.91 1.66,2.37 1.66,4.39 z m -3.76,2.51 c 0.58,-0.52 0.86,-1.37 0.86,-2.53 0,-1.16 -0.3,-1.96 -0.89,-2.39 -0.59,-0.43 -1.65,-0.65 -3.17,-0.65 h -3.6 v 6.35 h 3.53 c 1.6,0.01 2.69,-0.25 3.27,-0.78 z"
   id="path1336"
   inkscape:connector-curvature="0"
   style="fill:#ffffff" />
		</g>
	</g>
	<g
   id="g1350"
   style="fill:#ffffff">
		<path
   d="m 967.64,510.96 c -17.38,0 -30.87,-4.62 -40.48,-13.86 -9.61,-9.24 -14.42,-22.4 -14.42,-39.47 0,-17.62 4.45,-31.15 13.36,-40.58 8.9,-9.43 21.62,-14.14 38.14,-14.14 15.72,0 27.86,4.1 36.43,12.3 8.57,8.2 12.85,20.01 12.85,35.42 v 16.03 h -64.39 c 0.24,5.84 2.38,10.41 6.4,13.73 4.02,3.32 9.5,4.97 16.44,4.97 6.32,0 12.14,-0.6 17.46,-1.8 5.31,-1.2 11.07,-3.24 17.27,-6.13 v 25.88 c -5.65,2.89 -11.48,4.88 -17.5,5.99 -6.03,1.11 -13.21,1.66 -21.56,1.66 z m -2.12,-83.55 c -4.24,0 -7.78,1.34 -10.64,4.01 -2.86,2.67 -4.53,6.86 -5.02,12.57 h 30.95 c -0.12,-5.03 -1.55,-9.06 -4.28,-12.07 -2.74,-3 -6.41,-4.51 -11.01,-4.51 z"
   id="path1342"
   inkscape:connector-curvature="0"
   style="fill:#ffffff" />
		<path
   d="m 1101.94,509.12 -6.91,-13.82 h -0.74 c -4.85,6.02 -9.8,10.13 -14.83,12.34 -5.04,2.21 -11.55,3.32 -19.53,3.32 -9.83,0 -17.56,-2.95 -23.21,-8.84 -5.65,-5.9 -8.47,-14.19 -8.47,-24.87 0,-11.11 3.87,-19.39 11.61,-24.83 7.74,-5.43 18.95,-8.49 33.62,-9.17 l 17.41,-0.55 v -1.47 c 0,-8.6 -4.24,-12.9 -12.71,-12.9 -7.62,0 -17.29,2.58 -29.02,7.74 l -10.41,-23.77 c 12.16,-6.26 27.51,-9.4 46.06,-9.4 13.39,0 23.75,3.32 31.09,9.95 7.34,6.63 11.01,15.91 11.01,27.82 v 68.44 h -24.97 z m -26.71,-23.58 c 4.36,0 8.09,-1.38 11.19,-4.15 3.1,-2.76 4.65,-6.36 4.65,-10.78 v -8.11 l -8.29,0.37 c -11.85,0.43 -17.78,4.79 -17.78,13.08 0,6.4 3.41,9.59 10.23,9.59 z"
   id="path1344"
   inkscape:connector-curvature="0"
   style="fill:#ffffff" />
		<path
   d="m 1232.01,477.06 c 0,11.18 -3.81,19.62 -11.42,25.33 -7.62,5.71 -18.55,8.57 -32.79,8.57 -7.74,0 -14.46,-0.41 -20.17,-1.24 -5.71,-0.83 -11.55,-2.35 -17.5,-4.56 v -28.83 c 5.59,2.46 11.71,4.48 18.38,6.08 6.66,1.6 12.6,2.39 17.82,2.39 7.8,0 11.7,-1.78 11.7,-5.34 0,-1.84 -1.09,-3.48 -3.27,-4.93 -2.18,-1.44 -8.52,-4.25 -19.02,-8.43 -9.58,-3.93 -16.27,-8.4 -20.08,-13.4 -3.81,-5 -5.71,-11.34 -5.71,-19.02 0,-9.7 3.75,-17.26 11.24,-22.66 7.49,-5.4 18.09,-8.11 31.78,-8.11 6.88,0 13.34,0.75 19.39,2.26 6.05,1.51 12.33,3.7 18.84,6.59 l -9.76,23.21 c -4.79,-2.15 -9.86,-3.98 -15.2,-5.48 -5.34,-1.5 -9.7,-2.26 -13.08,-2.26 -5.9,0 -8.84,1.44 -8.84,4.33 0,1.78 1.03,3.3 3.09,4.56 2.06,1.26 8,3.82 17.82,7.69 7.31,3.01 12.76,5.96 16.35,8.84 3.59,2.89 6.23,6.28 7.92,10.18 1.66,3.9 2.51,8.65 2.51,14.23 z"
   id="path1346"
   inkscape:connector-curvature="0"
   style="fill:#ffffff" />
		<path
   d="m 1239.38,404.75 h 37.95 l 17.69,59.88 c 0.86,3.13 1.44,6.91 1.75,11.33 h 0.74 c 0.49,-4.24 1.23,-7.95 2.21,-11.15 l 18.15,-60.06 h 36.75 l -41.27,111 c -5.28,14.12 -11.78,24.1 -19.48,29.94 -7.71,5.83 -17.76,8.75 -30.17,8.75 -4.79,0 -9.7,-0.52 -14.74,-1.57 V 524.6 c 3.25,0.74 6.97,1.11 11.15,1.11 3.19,0 5.99,-0.61 8.38,-1.84 2.4,-1.23 4.48,-2.96 6.26,-5.2 1.78,-2.24 3.69,-5.91 5.71,-11.01 z"
   id="path1348"
   inkscape:connector-curvature="0"
   style="fill:#ffffff" />
	</g>
	<g
   id="g1366"
   style="fill:#ffffff">
		<path
   d="m 998.27,643.19 c 0,11.18 -3.81,19.62 -11.42,25.33 -7.62,5.71 -18.55,8.57 -32.79,8.57 -7.74,0 -14.46,-0.41 -20.17,-1.24 -5.71,-0.83 -11.55,-2.35 -17.5,-4.56 v -28.83 c 5.59,2.46 11.71,4.48 18.38,6.08 6.66,1.6 12.6,2.39 17.82,2.39 7.8,0 11.7,-1.78 11.7,-5.34 0,-1.84 -1.09,-3.48 -3.27,-4.93 -2.18,-1.44 -8.52,-4.25 -19.02,-8.43 -9.58,-3.93 -16.27,-8.4 -20.08,-13.4 -3.81,-5 -5.71,-11.34 -5.71,-19.02 0,-9.7 3.75,-17.26 11.24,-22.66 7.49,-5.4 18.09,-8.11 31.78,-8.11 6.88,0 13.34,0.75 19.39,2.26 6.05,1.51 12.33,3.7 18.84,6.59 l -9.76,23.21 c -4.79,-2.15 -9.86,-3.98 -15.2,-5.48 -5.34,-1.5 -9.7,-2.26 -13.08,-2.26 -5.9,0 -8.84,1.44 -8.84,4.33 0,1.78 1.03,3.3 3.09,4.56 2.06,1.26 8,3.82 17.82,7.69 7.31,3.01 12.76,5.96 16.35,8.84 3.59,2.89 6.23,6.28 7.92,10.18 1.67,3.9 2.51,8.64 2.51,14.23 z"
   id="path1352"
   inkscape:connector-curvature="0"
   style="fill:#ffffff" />
		<path
   d="m 1068.65,677.09 c -17.38,0 -30.87,-4.62 -40.48,-13.86 -9.61,-9.24 -14.42,-22.4 -14.42,-39.47 0,-17.62 4.45,-31.15 13.36,-40.58 8.9,-9.43 21.62,-14.14 38.14,-14.14 15.72,0 27.87,4.1 36.43,12.3 8.57,8.2 12.85,20.01 12.85,35.42 v 16.03 h -64.39 c 0.25,5.84 2.38,10.41 6.4,13.73 4.02,3.32 9.5,4.97 16.44,4.97 6.32,0 12.14,-0.6 17.46,-1.8 5.31,-1.2 11.07,-3.24 17.27,-6.13 v 25.88 c -5.65,2.89 -11.48,4.88 -17.5,5.99 -6.03,1.11 -13.21,1.66 -21.56,1.66 z m -2.12,-83.55 c -4.24,0 -7.78,1.34 -10.64,4.01 -2.86,2.67 -4.53,6.86 -5.02,12.57 h 30.95 c -0.12,-5.03 -1.55,-9.06 -4.28,-12.07 -2.74,-3 -6.4,-4.51 -11.01,-4.51 z"
   id="path1354"
   inkscape:connector-curvature="0"
   style="fill:#ffffff" />
		<path
   d="m 1197.89,569.04 c 3.13,0 6.11,0.25 8.94,0.74 l 2.03,0.37 -3.22,33.99 c -2.95,-0.74 -7.03,-1.11 -12.25,-1.11 -7.86,0 -13.57,1.8 -17.13,5.39 -3.56,3.59 -5.34,8.77 -5.34,15.52 v 51.31 H 1134.9 V 570.88 h 26.81 l 5.62,16.67 h 1.75 c 3.01,-5.53 7.2,-9.99 12.57,-13.4 5.35,-3.41 10.77,-5.11 16.24,-5.11 z"
   id="path1356"
   inkscape:connector-curvature="0"
   style="fill:#ffffff" />
		<path
   d="m 1250.76,675.25 -39.79,-104.37 h 37.58 l 17.69,61.72 c 0.06,0.31 0.18,0.83 0.37,1.57 0.18,0.74 0.37,1.61 0.55,2.63 0.18,1.01 0.35,2.09 0.51,3.22 0.15,1.14 0.23,2.2 0.23,3.18 h 0.64 c 0,-3.19 0.55,-6.66 1.66,-10.41 l 18.52,-61.9 h 37.49 l -39.79,104.37 h -35.66 z"
   id="path1358"
   inkscape:connector-curvature="0"
   style="fill:#ffffff" />
		<path
   d="m 1337.9,544.9 c 0,-5.4 1.5,-9.43 4.51,-12.07 3.01,-2.64 7.86,-3.96 14.55,-3.96 6.69,0 11.57,1.35 14.65,4.05 3.07,2.7 4.61,6.69 4.61,11.98 0,10.56 -6.42,15.84 -19.25,15.84 -12.71,0.01 -19.07,-5.27 -19.07,-15.84 z m 36.94,130.35 h -36.02 V 570.88 h 36.02 z"
   id="path1360"
   inkscape:connector-curvature="0"
   style="fill:#ffffff" />
		<path
   d="m 1447.52,677.09 c -17.07,0 -30.02,-4.61 -38.83,-13.82 -8.81,-9.21 -13.22,-22.44 -13.22,-39.7 0,-17.32 4.76,-30.74 14.28,-40.25 9.52,-9.52 23.06,-14.28 40.62,-14.28 12.1,0 23.49,2.64 34.18,7.92 l -10.59,26.62 c -4.36,-1.9 -8.38,-3.42 -12.07,-4.56 -3.68,-1.14 -7.52,-1.7 -11.51,-1.7 -5.83,0 -10.35,2.27 -13.54,6.82 -3.19,4.55 -4.79,10.96 -4.79,19.25 0,16.7 6.17,25.06 18.52,25.06 10.56,0 20.69,-3.07 30.4,-9.21 v 28.65 c -9.29,6.13 -20.43,9.2 -33.45,9.2 z"
   id="path1362"
   inkscape:connector-curvature="0"
   style="fill:#ffffff" />
		<path
   d="m 1552.07,677.09 c -17.38,0 -30.87,-4.62 -40.48,-13.86 -9.61,-9.24 -14.42,-22.4 -14.42,-39.47 0,-17.62 4.45,-31.15 13.36,-40.58 8.9,-9.43 21.61,-14.14 38.14,-14.14 15.72,0 27.86,4.1 36.43,12.3 8.57,8.2 12.85,20.01 12.85,35.42 v 16.03 h -64.39 c 0.24,5.84 2.38,10.41 6.4,13.73 4.02,3.32 9.5,4.97 16.44,4.97 6.32,0 12.14,-0.6 17.46,-1.8 5.31,-1.2 11.07,-3.24 17.27,-6.13 v 25.88 c -5.65,2.89 -11.48,4.88 -17.5,5.99 -6.02,1.11 -13.21,1.66 -21.56,1.66 z m -2.12,-83.55 c -4.24,0 -7.78,1.34 -10.64,4.01 -2.86,2.67 -4.53,6.86 -5.02,12.57 h 30.95 c -0.12,-5.03 -1.55,-9.06 -4.28,-12.07 -2.73,-3 -6.4,-4.51 -11.01,-4.51 z"
   id="path1364"
   inkscape:connector-curvature="0"
   style="fill:#ffffff" />
	</g>
</g>
<g
   id="g1382"
   transform="translate(-912.74,-402.9)">
	
	
</g>
</svg>