<?xml version="1.0" encoding="UTF-8" standalone="no"?>
<!-- Created with Inkscape (http://www.inkscape.org/) -->

<svg
   xmlns:dc="http://purl.org/dc/elements/1.1/"
   xmlns:cc="http://creativecommons.org/ns#"
   xmlns:rdf="http://www.w3.org/1999/02/22-rdf-syntax-ns#"
   xmlns:svg="http://www.w3.org/2000/svg"
   xmlns="http://www.w3.org/2000/svg"
   xmlns:sodipodi="http://sodipodi.sourceforge.net/DTD/sodipodi-0.dtd"
   xmlns:inkscape="http://www.inkscape.org/namespaces/inkscape"
   width="228"
   height="321"
   viewBox="0 0 60.324999 84.931256"
   version="1.1"
   id="svg8"
   inkscape:version="0.92.5 (2060ec1f9f, 2020-04-08)"
   sodipodi:docname="grande_florianopolis.svg">
  <defs
     id="defs2">
    <pattern
       patternUnits="userSpaceOnUse"
       width="384.69429"
       height="505.64148"
       patternTransform="matrix(0.26458333,0,0,0.26458333,56.641726,79.823972)"
       id="pattern193">
      <g
         transform="matrix(3.7795276,0,0,3.7795276,291.63535,-430.26831)"
         id="g175">
        <path
           inkscape:connector-curvature="0"
           id="path179"
           d="m -64.618621,246.93999 c -0.899668,-0.35092 -1.956395,-1.22727 -2.348285,-1.94745 -0.391889,-0.72019 -0.905248,-9.46426 -1.140797,-19.43128 -0.235548,-9.96702 -0.869549,-21.09735 -1.40889,-24.73406 -0.88599,-5.97413 -1.246036,-6.89662 -3.731076,-9.55953 -4.891564,-5.24167 -4.971465,-6.54159 -1.499595,-24.39726 1.731079,-8.90286 3.640299,-16.66166 4.426343,-17.98803 1.728493,-2.91667 7.044436,-5.59955 11.053314,-5.57844 4.073184,0.0215 8.788695,2.2074 10.872099,5.03994 2.152771,2.92685 2.585732,6.62678 1.905704,16.28545 -0.574048,8.15341 -0.997191,8.81225 -4.098317,6.38121 l -1.623187,-1.27245 1.290465,-7.24482 c 1.226478,-6.8856 1.225398,-7.3775 -0.02179,-9.92065 -2.326806,-4.74462 -7.602349,-6.71762 -12.57919,-4.7045 -1.492686,0.60379 -3.319571,1.99258 -4.059744,3.08619 -1.498598,2.2142 -4.699028,17.66153 -4.736603,22.8619 -0.03568,4.93761 1.841997,6.73117 11.91218,11.37857 4.759974,2.19673 8.782843,4.0929 8.939707,4.21371 0.156866,0.12081 -0.223137,1.29145 -0.844451,2.60141 -0.752292,1.58613 -1.296475,6.01397 -1.629027,13.25488 -1.036345,22.56511 -1.955253,37.71617 -2.362886,38.95954 -0.440387,1.34328 -4.025752,3.47905 -5.707087,3.39966 -0.535222,-0.0253 -1.709222,-0.33307 -2.608887,-0.68399 z m 65.654586,-0.20698 c -2.42589,-1.18651 -3.87194,-5.47053 -3.58923,-10.6334 l 0.21982,-4.01448 h 5.99006 5.99007 l 0.22531,5.05896 c 0.29302,6.57917 -0.16013,8.09393 -2.81963,9.42534 -2.65553,1.32943 -3.58128,1.3546 -6.0164,0.16358 z m -21.37676,-19.55434 c -0.20521,-0.5177 -0.28079,-6.80179 -0.16798,-13.96464 l 0.20513,-13.02337 5.95459,-0.21435 c 6.62832,-0.23861 7.89744,-0.84761 7.89744,-3.78962 0,-1.5255 0.62269,-2.36994 2.56616,-3.48004 2.81176,-1.60606 2.74552,-1.37052 4.00537,-14.24253 0.61263,-6.25923 0.53928,-6.79741 -1.94764,-14.29085 -2.4854,-7.48885 -2.53584,-7.85821 -1.31863,-9.65664 2.17334,-3.21115 7.2416,-3.98813 9.42221,-1.44446 0.97207,1.13391 3.73324,16.17795 3.74024,20.37842 0.003,1.63888 -0.69885,6.3206 -1.55906,10.40381 l -1.56404,7.42401 1.93842,1.95873 c 1.06612,1.0773 1.93841,2.63487 1.93841,3.46127 0,2.40316 1.55764,3.04968 7.89743,3.2779 l 5.95459,0.21435 v 13.77261 13.77261 l -22.29477,0.19204 c -17.73234,0.15274 -22.37112,-5.9e-4 -22.66787,-0.74925 z m 27.30707,-25.27751 c 0.99777,-0.89991 1.55727,-2.30591 1.55727,-3.91337 0,-3.02216 -1.51079,-3.34103 -3.30055,-0.69663 -0.8569,1.26607 -1.90309,1.81219 -3.47158,1.81219 -1.66813,0 -2.46425,-0.4657 -3.09796,-1.81219 -1.09464,-2.32582 -2.69777,-2.32327 -3.30145,0.005 -1.35065,5.20978 7.18937,8.59564 11.61427,4.60472 z m -44.15087,-10.39511 c -2.246354,-0.90138 -5.768985,-2.47157 -7.828071,-3.48929 -2.059085,-1.01774 -7.672893,-3.63661 -12.475129,-5.81974 -11.881391,-5.40136 -11.687876,-5.04602 -9.555204,-17.54576 1.884987,-11.04805 3.071434,-13.38962 6.78436,-13.38962 5.870931,0 6.876421,2.39843 5.212779,12.43422 -0.698038,4.21086 -1.136044,8.04272 -0.973346,8.51524 0.162697,0.47253 5.738197,3.48946 12.390001,6.70429 6.651803,3.21484 12.68383,6.3502 13.40451,6.96747 1.51762,1.29987 1.74124,4.74657 0.37438,5.77046 -1.96141,1.46928 -3.37653,1.44086 -7.33428,-0.14727 z m 49.70799,-0.77589 c -0.24514,-0.61845 0.14922,-4.70424 0.87634,-9.07954 1.31014,-7.88338 1.30686,-8.04153 -0.36463,-17.54107 -0.92768,-5.27229 -2.15926,-10.57889 -2.73684,-11.79245 -2.87515,-6.04096 -12.97443,-6.15746 -16.73069,-0.19299 -1.95514,3.10452 -1.91035,4.42923 0.43103,12.74951 1.90196,6.75879 1.92584,7.11882 1.01604,15.32025 -0.51243,4.61934 -1.19177,8.68093 -1.50964,9.02574 -0.67711,0.73453 -2.56381,-2.57804 -3.24706,-5.70106 -1.03654,-4.73777 -2.49644,-28.10291 -1.91253,-30.60929 0.85804,-3.6831 2.88579,-6.09567 6.71578,-7.99027 3.56646,-1.76424 7.63647,-2.08301 10.98014,-0.85998 2.69368,0.98528 6.16475,4.14539 7.11516,6.47775 1.2711,3.11936 5.84388,27.73057 5.84684,31.46835 0.005,5.80911 -4.97701,12.5167 -6.47994,8.72505 z m -36.94521,-2.11309 c 0,-1.04972 -0.53408,-2.90845 -1.18686,-4.1305 -0.65276,-1.22205 -0.90547,-2.48078 -0.56156,-2.79719 1.03222,-0.94965 10.78738,-5.97474 11.03929,-5.68658 0.12837,0.14686 0.43948,2.26519 0.69137,4.70742 l 0.45797,4.44041 -4.65649,2.44589 c -2.56106,1.34525 -4.91011,2.55463 -5.2201,2.68752 -0.30999,0.1329 -0.56362,-0.61724 -0.56362,-1.66697 z M -56.381706,139.02 c -6.054474,-2.73891 -9.084474,-10.19672 -6.650031,-16.36789 4.300663,-10.90192 19.918446,-11.89954 25.06801,-1.60127 3.012672,6.02483 1.345447,12.86285 -4.120201,16.89872 -3.599848,2.65816 -9.767349,3.1199 -14.297778,1.07044 z m 42.802971,0.35836 c -2.76372,-1.16581 -6.90738,-5.6084 -7.5527,-8.09754 -0.96379,-3.71753 0.0946,-9.5092 2.23394,-12.22456 6.08538,-7.72385 18.79135,-6.68538 23.38325,1.91113 1.83821,3.44132 1.48769,9.49783 -0.76507,13.21926 -3.24164,5.355 -11.22944,7.75221 -17.29942,5.19171 z"
           style="fill:#4c4c4c;stroke-width:0.73671949" />
      </g>
    </pattern>
  </defs>
  <sodipodi:namedview
     id="base"
     pagecolor="#ffffff"
     bordercolor="#666666"
     borderopacity="1.0"
     inkscape:pageopacity="0.0"
     inkscape:pageshadow="2"
     inkscape:zoom="0.7"
     inkscape:cx="-143.9812"
     inkscape:cy="242.47646"
     inkscape:document-units="px"
     inkscape:current-layer="layer1"
     showgrid="false"
     fit-margin-top="0"
     fit-margin-left="0"
     fit-margin-right="0"
     fit-margin-bottom="0"
     inkscape:object-nodes="false"
     inkscape:window-width="1366"
     inkscape:window-height="740"
     inkscape:window-x="0"
     inkscape:window-y="28"
     inkscape:window-maximized="1"
     units="px" />
  <metadata
     id="metadata5">
    <rdf:RDF>
      <cc:Work
         rdf:about="">
        <dc:format>image/svg+xml</dc:format>
        <dc:type
           rdf:resource="http://purl.org/dc/dcmitype/StillImage" />
        <dc:title></dc:title>
      </cc:Work>
    </rdf:RDF>
  </metadata>
  <g
     inkscape:label="Camada 1"
     inkscape:groupmode="layer"
     id="layer1"
     transform="translate(-48.820841,-139.3126)">
    <rect
       style="fill:none;stroke:none"
       width="101.7837"
       height="133.78432"
       x="56.641727"
       y="79.823975"
       id="rect197" />
    <g
       id="layer1-67"
       inkscape:label="Camada 1"
       transform="matrix(0.27527288,0,0,0.27527288,50.713729,142.28493)">
      <path
         inkscape:connector-curvature="0"
         id="path1198"
         d="m 90.880569,289.88337 c -1.247468,-0.53608 -3.766221,-1.01053 -5.597229,-1.05437 -1.831,-0.0437 -4.495266,-1.17529 -5.920585,-2.5143 -2.158582,-2.02786 -2.884573,-2.19133 -4.345975,-0.97847 -2.283988,1.89554 -11.684167,0.82833 -18.005144,-2.04414 -2.579076,-1.17202 -5.969857,-2.65321 -7.53507,-3.29156 -3.466218,-1.41359 -8.277086,-13.35854 -8.028519,-19.93402 0.08941,-2.36528 -0.61683,-5.41317 -1.569431,-6.77323 -1.936172,-2.76426 -2.353475,-11.65673 -0.597937,-12.7417 0.623736,-0.38534 1.134063,-2.6515 1.134063,-5.03563 0,-5.27669 3.064641,-7.94328 16.192931,-14.08973 l 8.813056,-4.12613 -1.603849,-3.11711 c -2.253355,-4.37936 -6.391185,-18.67585 -6.391185,-22.08194 0,-3.29945 -3.955469,-8.81969 -6.319661,-8.81969 -0.890329,0 -1.618784,-0.81124 -1.618784,-1.80282 0,-0.99154 -1.037112,-2.65013 -2.304693,-3.68568 -3.288331,-2.68653 -5.581131,-12.49679 -6.124439,-26.20482 -0.444971,-11.22705 -0.325668,-12.01828 2.278696,-15.1134 1.742163,-2.07042 2.748246,-4.69355 2.748246,-7.16542 0,-2.14465 0.860019,-6.99263 1.911152,-10.77338 2.17431,-7.82055 1.417707,-9.20539 -4.746309,-8.68744 -2.833473,0.23789 -3.466879,-0.17188 -3.789154,-2.45327 -0.212811,-1.50652 0.756938,-4.77442 2.155032,-7.26202 2.451428,-4.361745 2.467596,-4.577256 0.453726,-6.049832 -1.148549,-0.839843 -2.446461,-1.527011 -2.884247,-1.527011 -1.801903,0 -2.107049,-3.900506 -0.49734,-6.357244 2.474288,-3.776205 2.074176,-5.087061 -2.841715,-9.310106 -3.821688,-3.283034 -4.694063,-3.5898 -6.880993,-2.419359 -2.239252,1.198385 -2.901959,0.876018 -6.258479,-3.044677 -3.903889,-4.560071 -4.42753,-7.102445 -3.881297,-18.844343 0.199867,-4.296469 -0.118428,-5.386798 -1.572607,-5.386798 -3.549633,0 -10.8599893,-2.840138 -10.8599893,-4.219189 0,-0.769377 1.2272361,-2.202948 2.727195,-3.185778 1.4999603,-0.982789 3.0258903,-2.976997 3.3909533,-4.431528 0.365057,-1.454531 2.841543,-4.950161 5.503284,-7.768054 4.049209,-4.286739 5.764129,-5.257439 10.501328,-5.944221 3.113984,-0.451425 6.277351,-1.310684 7.029695,-1.909428 0.752348,-0.598785 1.800476,-0.821326 2.329177,-0.494544 0.528702,0.32661 3.204832,0.09002 5.946957,-0.526135 4.41704,-0.992432 5.594323,-0.788921 10.32211,1.78427 5.387151,2.932035 9.756499,2.763543 11.744402,-0.452969 0.943997,-1.527438 7.414645,-1.588474 7.414645,-0.06986 0,1.932616 4.39644,1.24622 5.525043,-0.862603 0.587726,-1.098173 0.812786,-3.334853 0.500138,-4.970348 -0.764397,-3.998705 1.232439,-4.9613484 6.61004,-3.186594 3.817477,1.259894 5.315684,1.199028 10.468897,-0.425194 3.307619,-1.0426226 8.107776,-1.895668 10.667016,-1.895668 2.55924,0 5.0046,-0.568654 5.43415,-1.2636647 0.46206,-0.747646 2.53295,-1.0286944 5.07109,-0.688239 3.5276,0.4731569 4.70953,0.093019 6.64985,-2.1385253 3.81792,-4.39098104 5.77692,-3.5439367 5.77692,2.4977538 0,3.5217342 0.79391,6.3266822 2.44826,8.6499432 2.39025,3.356843 2.40037,3.527006 0.42777,7.190228 -1.94548,3.612473 -1.94882,6.557495 -0.0129,12.686497 1.21973,3.864673 -1.96151,3.247199 -4.38211,-0.85056 -4.54507,-7.6942 -9.03836,-1.049438 -10.2307,15.12943 -0.41748,5.667546 -1.12692,8.193762 -2.63212,9.375173 -4.6876,3.679209 -5.70452,3.862146 -8.63894,1.553929 -6.34177,-4.988395 -12.138885,-2.137584 -17.184715,8.450847 -5.418114,11.369641 -6.951561,17.078976 -5.431071,20.220908 2.184115,4.513223 4.8119,13.636193 4.8119,16.705603 0,1.84149 1.309158,4.24225 3.412011,6.2569 2.933315,2.81027 3.309137,3.81726 2.678744,7.17753 -0.641018,3.41694 -0.284091,4.30085 2.836955,7.02581 1.963626,1.71446 5.304966,3.44261 7.425216,3.84038 3.0565,0.5734 4.32173,1.66652 6.10828,5.27749 2.75505,5.56845 1.57072,9.97144 -3.4856,12.95829 -3.63456,2.14697 -4.97938,1.46079 -5.55433,-2.83404 -0.30286,-2.26245 -1.11349,-2.90615 -4.012849,-3.1866 -6.755618,-0.65353 -9.421636,2.96894 -9.857037,13.39316 -0.103428,2.47658 -0.63419,2.83517 -4.196218,2.83517 -4.195964,0 -7.829869,2.075 -7.829869,4.47099 0,0.74693 1.839884,3.50759 4.08863,6.13475 3.501503,4.0907 3.986223,5.32251 3.375487,8.57804 -0.531288,2.83198 -0.27256,3.97045 1.014657,4.4644 2.108266,0.80901 2.248211,3.42673 0.270933,5.06776 -1.861624,1.54502 -1.667342,14.67708 0.286961,19.39513 0.77763,1.87737 2.379645,3.71993 3.560034,4.09454 1.303709,0.41363 2.146163,1.7277 2.146163,3.34717 0,1.46632 0.307064,3.46614 0.682314,4.44409 0.462634,1.20562 -0.232142,2.12575 -2.157962,2.85796 -3.460237,1.31558 -3.773717,1.79186 -4.808015,7.30514 l -0.819249,4.36698 3.716781,-0.81636 c 3.527563,-0.77477 3.671563,-0.67996 2.828583,1.86177 -0.48851,1.47292 -0.945653,4.70049 -1.015874,7.17239 l -0.127687,4.49432 6.804382,1.17597 6.804385,1.17598 0.36784,4.51909 c 0.30543,3.75246 -0.13365,4.91892 -2.58863,6.87648 -3.841582,3.06315 -5.025317,9.57726 -2.453603,13.5022 1.512953,2.30904 2.471923,2.70354 5.230633,2.15181 2.54204,-0.50838 3.55999,-0.20145 4.11323,1.24027 0.95615,2.49166 -1.7207,7.43865 -4.64541,8.58504 -1.26071,0.49413 -3.419101,1.96811 -4.79642,3.27545 -2.68276,2.54654 -4.126635,2.77953 -7.702349,1.24301 z m 21.567781,-38.52488 c -0.37419,-0.60539 0.0544,-2.52155 0.95241,-4.25807 2.16609,-4.18876 1.81748,-15.34725 -0.56506,-18.08599 -0.99119,-1.1394 -2.09551,-3.99287 -2.45405,-6.34108 -0.5758,-3.77128 -0.2642,-4.55613 2.67033,-6.72574 4.26158,-3.15071 4.82019,-5.10346 3.34417,-11.6899 -1.05093,-4.68937 -0.8959,-6.00766 1.22074,-10.38003 l 2.42454,-5.00846 -2.95629,-2.73975 c -3.70153,-3.43049 -3.75517,-7.01728 -0.20959,-14.01416 3.83963,-7.57709 5.15332,-8.42783 11.5361,-7.47068 l 5.35191,0.80257 -0.73291,-7.0121 c -1.0022,-9.58845 -2.18708,-11.55464 -6.44944,-10.70215 -2.62516,0.52502 -3.37985,0.27047 -3.37985,-1.14078 0,-0.99915 -1.27579,-2.6526 -2.83512,-3.67437 -3.76707,-2.46821 -3.58354,-4.91355 0.48396,-6.44882 1.82554,-0.68906 3.85593,-2.4309 4.51198,-3.87072 1.26477,-2.77589 1.85533,-2.97215 7.92081,-2.63222 3.44916,0.1933 3.77685,-0.0429 3.18823,-2.29326 -0.41492,-1.58733 0.20059,-3.66717 1.67612,-5.66305 2.53929,-3.43459 2.01667,-5.63814 -1.33722,-5.63814 -4.50483,0 -4.96155,-6.60593 -0.76933,-11.1275 2.35322,-2.5381 2.36813,-2.73171 0.46613,-6.045729 -1.08069,-1.883023 -1.9649,-4.158793 -1.9649,-5.057186 0,-0.898436 -1.27584,-2.214821 -2.83516,-2.925306 -4.07093,-1.854863 -3.63241,-5.663088 1.13405,-9.848115 4.19583,-3.683967 5.09371,-6.676394 2.26814,-7.5591 -5.87024,-1.833946 -5.81631,-1.763181 -2.6295,-3.449467 1.67243,-0.885021 3.38122,-2.681678 3.79728,-3.992662 0.60547,-1.907669 1.35694,-2.241095 3.76361,-1.669999 9.26464,2.198576 12.72418,2.120696 15.01481,-0.338182 1.74523,-1.87321 3.59524,-2.422874 8.16603,-2.426131 3.93274,-0.0029 7.17029,-0.77285 9.67808,-2.301789 3.97457,-2.423175 3.94761,-2.239423 1.74347,-11.891145 -0.40505,-1.772995 0.43866,-2.725266 3.73943,-4.221373 4.70657,-2.133296 6.04949,-1.324358 5.19778,3.130958 -0.32019,1.6751 0.39518,3.871961 1.87239,5.749928 1.3148,1.671541 2.39055,4.016321 2.39055,5.210634 0,2.907903 2.61083,7.795528 5.61766,10.516681 2.02519,1.832788 2.82556,1.979121 4.63696,0.8479 4.95638,-3.095339 5.75631,-0.931911 2.2201,6.004144 -1.24746,2.446834 -2.26815,5.8846 -2.26815,7.639467 0,2.375511 -1.666,4.849476 -6.52084,9.683266 -3.5865,3.570941 -8.7703,10.487786 -11.51966,15.370826 -4.33688,7.70265 -5.01261,9.80495 -5.10326,15.87691 -0.0961,6.43157 0.10246,7.02803 2.44714,7.36103 3.92322,0.5572 2.98042,3.85564 -3.29277,11.52018 -1.77545,2.16924 -3.22984,4.97603 -3.23198,6.23735 -0.002,1.26127 -3.05695,5.61037 -6.78845,9.66467 -7.70684,8.37348 -12.48675,16.8872 -12.48675,22.24079 0,2.57854 -0.98943,4.58423 -3.36974,6.83091 -3.61664,3.4135 -7.31637,10.98949 -8.5152,17.43671 -0.93581,5.03258 0.88332,9.92017 4.20969,11.31041 1.41457,0.59119 3.55146,1.84975 4.74867,2.79676 2.03924,1.61311 2.05716,1.85391 0.28331,3.81379 -1.04126,1.15054 -1.89319,3.37604 -1.89319,4.94553 0,6.18176 -7.20209,8.42484 -9.64966,3.00537 -2.80652,-6.21437 -8.51141,-1.70552 -12.05723,9.52948 -1.41343,4.47846 -3.48672,9.05953 -4.60727,10.18013 -2.18422,2.18418 -7.13588,2.74608 -8.25418,0.93661 z"
         style="fill:#ffffff;stroke-width:1.1340636" />
      <g
         id="g1240"
         transform="matrix(3.5889172,0,0,3.5889172,-216.10449,-324.60838)">
        <path
           style="fill:#e6e6e6;fill-opacity:1;stroke-width:0.04665416"
           d="m 101.16031,129.97399 c -0.55667,-0.34475 -1.848296,-2.02492 -2.629378,-3.42035 -0.727727,-1.3001 -1.08009,-2.30724 -1.079274,-3.08481 0.0019,-1.82845 1.338622,-3.46186 3.135172,-3.83108 2.43025,-0.49947 4.74609,1.36888 4.74868,3.83108 4.2e-4,0.39158 -0.0534,0.68679 -0.21949,1.20364 -0.46511,1.44758 -1.86085,3.69635 -3.03597,4.89146 -0.50343,0.512 -0.64978,0.57725 -0.91974,0.41006 z m 0.77916,-3.92975 c 0.45414,-0.094 0.91637,-0.35207 1.27879,-0.71394 0.52511,-0.52432 0.76463,-1.09575 0.76463,-1.82418 0,-1.45585 -1.13584,-2.59355 -2.58931,-2.59355 -1.453465,0 -2.589304,1.1377 -2.589304,2.59355 0,0.7289 0.239703,1.30051 0.764626,1.82338 0.355441,0.35404 0.766688,0.59206 1.207548,0.69889 0.30888,0.0748 0.84288,0.0821 1.16302,0.0159 z"
           id="path1246"
           inkscape:connector-curvature="0" />
        <path
           style="fill:#8c8c8c;fill-opacity:1;stroke-width:0.04665416"
           d="m 101.13445,129.92803 c -0.75626,-0.48493 -2.382012,-2.78873 -3.105652,-4.40094 -0.439774,-0.97978 -0.613277,-1.69812 -0.557859,-2.30968 0.151376,-1.6705 1.242417,-3.00874 2.849601,-3.49525 0.37105,-0.11233 0.49584,-0.12711 1.07304,-0.12711 0.5772,0 0.70199,0.0148 1.07305,0.12711 1.60718,0.48651 2.69822,1.82475 2.84959,3.49525 0.0554,0.61156 -0.11808,1.3299 -0.55786,2.30968 -0.57987,1.29192 -1.72233,3.02056 -2.63878,3.99271 -0.25096,0.26622 -0.61986,0.54122 -0.726,0.54122 -0.0284,0 -0.14505,-0.0598 -0.25913,-0.13299 z m 0.98227,-3.91056 c 1.15851,-0.31732 1.99573,-1.51864 1.89139,-2.71395 -0.13178,-1.50981 -1.52231,-2.62158 -2.99566,-2.39511 -1.463875,0.22501 -2.487983,1.66903 -2.189733,3.08757 0.321542,1.52933 1.793303,2.43253 3.294003,2.02149 z"
           id="path1244"
           inkscape:connector-curvature="0" />
        <path
           style="fill:#000000;fill-opacity:1;stroke-width:0.04665416"
           d="m 101.25086,129.98568 c -0.30264,-0.15702 -0.85337,-0.74329 -1.463791,-1.55827 -1.214143,-1.62101 -2.169114,-3.54813 -2.28167,-4.60437 -0.17241,-1.61792 0.802119,-3.24402 2.348595,-3.91887 0.709356,-0.30955 1.624576,-0.39672 2.379366,-0.22662 1.6424,0.37012 2.88939,1.7706 3.04725,3.42235 0.0512,0.53511 -0.005,0.96788 -0.20769,1.5959 -0.50145,1.55503 -2.23342,4.2408 -3.30671,5.12772 -0.26707,0.22069 -0.35138,0.24722 -0.51535,0.16216 z m 0.79321,-3.93623 c 0.48329,-0.1236 0.82137,-0.3235 1.21905,-0.72078 1.20836,-1.20714 0.94889,-3.18804 -0.53562,-4.08918 -0.44057,-0.26743 -0.74349,-0.34601 -1.33392,-0.34601 -0.59043,0 -0.89334,0.0786 -1.33391,0.34601 -1.20484,0.73136 -1.635249,2.20681 -1.011088,3.46602 0.176953,0.35699 0.693412,0.88933 1.069538,1.10242 0.56134,0.31803 1.27626,0.40768 1.92595,0.24152 z"
           id="path1242"
           inkscape:connector-curvature="0" />
      </g>
      <g
         transform="matrix(2.0669657,0,0,2.0669661,138.98544,-486.75696)"
         id="layer1-6"
         inkscape:label="Camada 1">
        <rect
           y="288.54761"
           x="0"
           height="8.4523983"
           width="8.4858074"
           id="rect88"
           style="fill:none;stroke-width:0.26458332" />
        <g
           inkscape:export-ydpi="96"
           inkscape:export-xdpi="96"
           style="fill:#000000"
           transform="matrix(0.01513316,0,0,0.01513316,-4.7802058,284.56099)"
           id="g52">
          <g
             style="fill:#000000"
             id="g42" />
          <g
             style="fill:#000000"
             id="g50">
            <g
               transform="matrix(17.48368,0,0,17.48368,-16558.31,-8826.6022)"
               id="g1061">
              <g
                 transform="matrix(0.0571035,0,0,0.0571035,947.17171,504.99248)"
                 id="g1026">
                <g
                   id="g1016">
                  <path
                     style="fill:#000000;fill-opacity:1;stroke:none;stroke-width:4.9092865;stroke-miterlimit:4;stroke-dasharray:none;stroke-opacity:1"
                     inkscape:connector-curvature="0"
                     d="m 823.92,563.15 v -46.3 l 37.87,-34.19 c 4.18,-3.78 5.54,-9.78 3.38,-14.99 l -28.24,-68.19 c -2.16,-5.21 -7.35,-8.48 -12.99,-8.21 l -50.95,2.6 -32.74,-32.74 2.6,-50.95 c 0.29,-5.63 -3,-10.83 -8.21,-12.99 l -68.19,-28.25 c -5.21,-2.16 -11.21,-0.8 -14.99,3.38 l -34.19,37.87 h -46.3 L 536.78,272.32 C 533,268.14 527,266.78 521.79,268.94 l -68.19,28.24 c -5.21,2.16 -8.5,7.36 -8.21,12.99 l 2.6,50.95 -32.74,32.74 -50.95,-2.6 c -5.63,-0.28 -10.83,3 -12.99,8.21 l -28.24,68.19 c -2.16,5.21 -0.8,11.21 3.38,14.99 l 37.87,34.19 v 46.3 l -37.87,34.19 c -4.18,3.78 -5.54,9.78 -3.38,14.99 l 28.24,68.19 c 2.16,5.21 7.36,8.5 12.99,8.21 l 50.95,-2.6 32.75,32.74 -2.6,50.95 c -0.29,5.63 3,10.83 8.21,12.99 l 68.19,28.24 c 5.21,2.16 11.21,0.8 14.99,-3.38 l 34.19,-37.87 h 46.3 l 34.19,37.87 c 2.58,2.86 6.2,4.4 9.89,4.4 1.71,0 3.45,-0.33 5.1,-1.01 l 68.19,-28.24 c 5.21,-2.16 8.5,-7.36 8.21,-12.99 l -2.6,-50.95 32.74,-32.74 50.95,2.6 c 5.64,0.28 10.83,-3 12.99,-8.21 l 28.24,-68.19 c 2.16,-5.21 0.8,-11.21 -3.38,-14.99 z m -8.02,98.48 -47.48,-2.43 c -3.78,-0.19 -7.44,1.22 -10.1,3.89 l -41.11,41.11 c -2.67,2.67 -4.08,6.34 -3.88,10.1 l 2.43,47.47 -50.81,21.05 -31.85,-35.28 c -2.53,-2.8 -6.12,-4.4 -9.89,-4.4 h -58.14 c -3.77,0 -7.36,1.6 -9.89,4.4 l -31.85,35.28 -50.81,-21.05 2.43,-47.47 c 0.19,-3.77 -1.22,-7.44 -3.89,-10.1 l -41.11,-41.11 c -2.67,-2.67 -6.33,-4.08 -10.1,-3.89 l -47.47,2.43 -21.05,-50.81 35.28,-31.85 c 2.8,-2.53 4.4,-6.12 4.4,-9.89 v -58.14 c 0,-3.77 -1.6,-7.36 -4.4,-9.89 l -35.28,-31.85 21.05,-50.81 47.47,2.43 c 3.77,0.19 7.44,-1.22 10.1,-3.89 l 41.11,-41.11 c 2.67,-2.67 4.08,-6.34 3.89,-10.1 l -2.43,-47.47 50.81,-21.05 31.85,35.28 c 2.53,2.8 6.12,4.4 9.89,4.4 h 58.14 c 3.77,0 7.36,-1.6 9.89,-4.4 l 31.85,-35.28 50.81,21.05 -2.43,47.47 c -0.19,3.77 1.22,7.44 3.88,10.1 l 41.11,41.11 c 2.67,2.67 6.33,4.08 10.1,3.89 l 47.48,-2.43 21.05,50.81 -35.28,31.85 c -2.8,2.53 -4.4,6.12 -4.4,9.89 v 58.14 c 0,3.77 1.6,7.36 4.4,9.89 l 35.28,31.85 z"
                     id="path1014" />
                </g>
                <g
                   id="g1024">
                  <path
                     style="fill:#1e87f0;fill-opacity:1;stroke:none;stroke-width:4.9092865;stroke-miterlimit:4;stroke-dasharray:none;stroke-opacity:1"
                     inkscape:connector-curvature="0"
                     class="st0"
                     d="m 543.56,636.72 c -1.98,-0.28 -2.31,-1.12 -2.44,-3.14 -0.37,-6.09 -1.84,-11.89 -6.03,-16.2 -3.82,-3.92 -9.14,-6.39 -14.97,-6.36 -2.75,0.01 -2.31,-1.64 -2.39,-3.43 -0.26,-5.47 -2.19,-10.53 -5.87,-14.33 -3.73,-3.8 -8.85,-6.44 -14.47,-6.33 -1.8,0.03 -2.76,-0.73 -2.91,-3.7 -0.28,-5.38 -2.24,-10.33 -5.86,-14.06 -4.21,-4.33 -10.01,-6.71 -16.31,-6.71 -6.69,0 -13.14,2.63 -18.17,7.43 -10.24,9.82 -15.75,26.78 -6.79,37.05 3.58,4.09 7.74,6.07 12.73,6.07 1.56,0 3.08,-0.2 4.56,-0.5 1.32,-0.27 3.16,-0.06 2.59,2.42 -1.06,4.63 -1.6,9.86 3.24,15.99 3.24,4.1 7.44,6.18 12.51,6.18 1.36,0 2.71,-0.15 4.02,-0.38 1.65,-0.29 4.39,-0.77 3.45,2.79 -1.23,4.63 -1.38,9.88 3.26,15.54 3.26,3.95 7.7,5.95 13.2,5.95 1.49,0 2.99,-0.15 4.46,-0.39 1.63,-0.26 4.09,-0.02 3.01,3.69 -1.46,5 -1.38,10.75 3.81,16.61 3.48,3.96 8.73,6.06 15.18,6.06 0,0 0,0 0,0 8.6,0 18.07,-3.74 24.14,-9.53 5.07,-4.85 8.05,-11.49 8.18,-18.22 0.12,-6.1 -2.08,-11.8 -6.19,-16.04 -4.09,-4.15 -9.81,-5.59 -15.94,-6.46 z"
                     id="path1018" />
                  <path
                     style="fill:#000000;fill-opacity:1;stroke:none;stroke-width:4.9092865;stroke-miterlimit:4;stroke-dasharray:none;stroke-opacity:1"
                     inkscape:connector-curvature="0"
                     d="m 630.42,508.75 c -6.59,-6.59 -12.34,-7.09 -22.98,-2.49 -10.64,4.6 -26.9,13.45 -34.05,16.82 -0.04,0.02 -0.08,0.04 -0.12,0.06 -9.37,4.91 -16.4,6.66 -19.62,6.66 -18.09,-0.12 -32.81,-14.81 -32.81,-32.75 0,-11.3 5.8,-21.67 15.53,-27.73 0.04,-0.03 0.08,-0.05 0.12,-0.08 13.96,-9.66 46.49,-26.99 46.82,-27.16 0.79,-0.42 1.36,-1.17 1.55,-2.06 0.18,-0.88 -0.03,-1.8 -0.59,-2.5 -0.45,-0.56 -11.18,-13.83 -34.31,-13.83 -22.56,0 -67.46,29.25 -69.32,30.47 -0.06,0.04 -5.66,3.48 -14.45,3.48 -4.71,0 -9.52,-0.98 -14.29,-2.91 -0.05,-0.02 -0.09,-0.04 -0.14,-0.05 l -35.69,-12.43 c -0.93,-0.32 -1.95,-0.18 -2.76,0.39 -0.8,0.57 -1.28,1.49 -1.28,2.47 v 124.04 c 0,1.35 0.89,2.54 2.19,2.91 0.1,0.03 10.15,2.95 19.04,6.58 0.77,0.32 1.63,0.3 2.39,-0.04 0.76,-0.34 1.34,-0.98 1.62,-1.76 1.99,-5.68 5.12,-10.62 9.26,-14.65 6.75,-6.43 16.15,-10.12 25.79,-10.12 9.38,0 18.17,3.52 24.12,9.64 3.82,3.97 6.44,8.63 7.8,13.85 0.26,1.02 1.04,1.82 2.04,2.14 5.11,1.58 9.74,4.4 13.39,8.16 3.79,3.91 6.42,8.55 7.81,13.82 0.27,1.01 1.04,1.82 2.04,2.13 5.09,1.57 9.72,4.4 13.39,8.17 4.1,4.23 6.96,9.48 8.28,15.18 0.25,1.07 1.05,1.92 2.11,2.23 5.29,1.54 10.12,4.44 13.98,8.37 7.22,7.42 10.37,17.87 8.65,28.68 -0.14,0.88 0.11,1.77 0.69,2.45 0.1,0.11 0.2,0.21 0.3,0.31 1.26,1.43 5.52,6.13 8.18,8.81 3.53,3.54 8.25,5.48 13.27,5.48 5.02,0 9.74,-1.95 13.29,-5.49 3.64,-3.66 5.46,-8.46 5.47,-13.27 0,-2.71 2.49,-3.95 3.88,-3.14 2.83,1.64 6.06,2.52 9.42,2.52 5.02,0 9.73,-1.94 13.28,-5.48 4.66,-4.66 5.99,-10.4 4.69,-16.44 -0.39,-1.82 0.76,-3.58 3.01,-2.31 2.98,1.69 6.3,2.72 9.77,2.72 4.95,0 9.61,-1.92 13.09,-5.41 5.4,-5.4 6.38,-12.92 3.07,-19.55 -0.76,-1.53 0.33,-3.2 2.63,-2.24 2.18,0.91 4.2,2.15 6.5,2.15 5.02,0 11.06,-2.96 14.61,-6.49 7.29,-7.29 8.73,-19.59 1.44,-26.94 -0.21,-0.19 -68.99,-70.26 -72.1,-73.37 z"
                     id="path1020" />
                  <path
                     style="fill:#1e87f0;fill-opacity:1;stroke:none;stroke-width:4.9092865;stroke-miterlimit:4;stroke-dasharray:none;stroke-opacity:1"
                     inkscape:connector-curvature="0"
                     class="st0"
                     d="m 772.52,454.21 c -0.34,0.08 -34.55,7.73 -56.16,12.3 -1.2,0.25 -2.4,0.38 -3.56,0.38 -5.16,0 -8.26,-2.44 -8.33,-2.5 -0.17,-0.15 -17.36,-14.95 -36.4,-30.97 -9.36,-7.89 -16.69,-11.4 -23.78,-11.4 -4.52,0 -8.94,1.33 -14.81,4.45 -18.09,9.61 -63.44,35.03 -85.08,48.15 -9.91,5.54 -14.93,12.9 -14.93,21.87 0,5.23 2.56,10.97 6.84,15.37 4.73,4.86 10.89,7.53 17.36,7.53 4.21,0 8.45,-1.12 12.5,-3.28 8.73,-4.24 25.4,-13.17 42.48,-22.17 4.01,-2.11 7.93,-3.19 11.68,-3.19 7.18,0 11.34,3.89 11.48,4.02 0.59,0.59 59.67,59.33 76.23,75.21 5.16,4.96 11.83,7.48 19.8,7.48 4.38,0 44.98,-8.74 45.93,-8.92 1.42,-0.28 2.45,-1.53 2.45,-2.98 v -108.4 c 0,-0.92 -0.42,-1.79 -1.14,-2.37 -0.72,-0.56 -1.66,-0.78 -2.56,-0.58 z"
                     id="path1022" />
                </g>
              </g>
            </g>
          </g>
        </g>
      </g>
    </g>
  </g>
</svg>
