<?xml version="1.0" encoding="UTF-8" standalone="no"?>
<!-- Generator: Adobe Illustrator 24.1.2, SVG Export Plug-In . SVG Version: 6.00 Build 0)  -->

<svg
   xmlns:dc="http://purl.org/dc/elements/1.1/"
   xmlns:cc="http://creativecommons.org/ns#"
   xmlns:rdf="http://www.w3.org/1999/02/22-rdf-syntax-ns#"
   xmlns:svg="http://www.w3.org/2000/svg"
   xmlns="http://www.w3.org/2000/svg"
   xmlns:sodipodi="http://sodipodi.sourceforge.net/DTD/sodipodi-0.dtd"
   xmlns:inkscape="http://www.inkscape.org/namespaces/inkscape"
   version="1.1"
   id="Camada_1"
   x="0px"
   y="0px"
   viewBox="0 0 1892.2885 785.60175"
   xml:space="preserve"
   sodipodi:docname="logo.svg"
   inkscape:version="0.92.5 (2060ec1f9f, 2020-04-08)"
   width="1892.2885"
   height="785.60175"><metadata
   id="metadata59"><rdf:RDF><cc:Work
       rdf:about=""><dc:format>image/svg+xml</dc:format><dc:type
         rdf:resource="http://purl.org/dc/dcmitype/StillImage" /><dc:title></dc:title></cc:Work></rdf:RDF></metadata><defs
   id="defs57" /><sodipodi:namedview
   pagecolor="#ffffff"
   bordercolor="#666666"
   borderopacity="1"
   objecttolerance="10"
   gridtolerance="10"
   guidetolerance="10"
   inkscape:pageopacity="0"
   inkscape:pageshadow="2"
   inkscape:window-width="1366"
   inkscape:window-height="740"
   id="namedview55"
   showgrid="false"
   inkscape:zoom="0.21851852"
   inkscape:cx="928.75695"
   inkscape:cy="411.09827"
   inkscape:window-x="0"
   inkscape:window-y="28"
   inkscape:window-maximized="1"
   inkscape:current-layer="g1264"
   fit-margin-top="0"
   fit-margin-left="0"
   fit-margin-right="0"
   fit-margin-bottom="0" />
<style
   type="text/css"
   id="style2">
	.st0{fill:#336699;}
</style>

<g
   id="g1264"
   transform="translate(-17.514233,-165.49653)"><g
     id="g1319"
     transform="matrix(1.0561941,0,0,1.0561941,-68.652227,-12.039305)"
     style="fill:#ffffff"><g
       id="g1291"
       style="fill:#ffffff"><g
         inkscape:export-ydpi="96"
         inkscape:export-xdpi="96"
         style="fill:#ffffff"
         transform="matrix(1.3669474,0,0,1.3669474,-358.64981,-198.14882)"
         id="g38">
	<g
   style="fill:#ffffff"
   id="g10">
		<path
   style="fill:#ffffff"
   inkscape:connector-curvature="0"
   id="path4"
   d="m 1615.24,583.5 c -9.64,0 -17.48,-8.3 -17.48,-18.5 0,-10.2 7.84,-18.5 17.48,-18.5 9.64,0 17.48,8.3 17.48,18.5 0,10.2 -7.84,18.5 -17.48,18.5 z m 0,-33.92 c -8.04,0 -14.57,6.92 -14.57,15.42 0,8.5 6.54,15.42 14.57,15.42 8.03,0 14.57,-6.92 14.57,-15.42 0.01,-8.5 -6.53,-15.42 -14.57,-15.42 z" />
		<g
   style="fill:#ffffff"
   id="g8">
			<path
   style="fill:#ffffff"
   inkscape:connector-curvature="0"
   id="path6"
   d="m 1622.78,562.18 c 0,2.93 -1.21,4.77 -3.62,5.54 l 4.39,6.45 h -3.6 l -4.01,-5.97 h -3.72 v 5.97 h -2.83 v -17.75 h 6.24 c 2.56,0 4.39,0.46 5.49,1.37 1.1,0.91 1.66,2.37 1.66,4.39 z m -3.76,2.51 c 0.58,-0.52 0.86,-1.37 0.86,-2.53 0,-1.16 -0.3,-1.96 -0.89,-2.39 -0.59,-0.43 -1.65,-0.65 -3.17,-0.65 h -3.6 v 6.35 h 3.53 c 1.6,0.01 2.69,-0.25 3.27,-0.78 z" />
		</g>
	</g>
	<g
   style="fill:#ffffff"
   id="g20">
		<path
   style="fill:#ffffff"
   inkscape:connector-curvature="0"
   id="path12"
   d="m 967.64,510.96 c -17.38,0 -30.87,-4.62 -40.48,-13.86 -9.61,-9.24 -14.42,-22.4 -14.42,-39.47 0,-17.62 4.45,-31.15 13.36,-40.58 8.9,-9.43 21.62,-14.14 38.14,-14.14 15.72,0 27.86,4.1 36.43,12.3 8.57,8.2 12.85,20.01 12.85,35.42 v 16.03 h -64.39 c 0.24,5.84 2.38,10.41 6.4,13.73 4.02,3.32 9.5,4.97 16.44,4.97 6.32,0 12.14,-0.6 17.46,-1.8 5.31,-1.2 11.07,-3.24 17.27,-6.13 v 25.88 c -5.65,2.89 -11.48,4.88 -17.5,5.99 -6.03,1.11 -13.21,1.66 -21.56,1.66 z m -2.12,-83.55 c -4.24,0 -7.78,1.34 -10.64,4.01 -2.86,2.67 -4.53,6.86 -5.02,12.57 h 30.95 c -0.12,-5.03 -1.55,-9.06 -4.28,-12.07 -2.74,-3 -6.41,-4.51 -11.01,-4.51 z" />
		<path
   style="fill:#ffffff"
   inkscape:connector-curvature="0"
   id="path14"
   d="m 1101.94,509.12 -6.91,-13.82 h -0.74 c -4.85,6.02 -9.8,10.13 -14.83,12.34 -5.04,2.21 -11.55,3.32 -19.53,3.32 -9.83,0 -17.56,-2.95 -23.21,-8.84 -5.65,-5.9 -8.47,-14.19 -8.47,-24.87 0,-11.11 3.87,-19.39 11.61,-24.83 7.74,-5.43 18.95,-8.49 33.62,-9.17 l 17.41,-0.55 v -1.47 c 0,-8.6 -4.24,-12.9 -12.71,-12.9 -7.62,0 -17.29,2.58 -29.02,7.74 l -10.41,-23.77 c 12.16,-6.26 27.51,-9.4 46.06,-9.4 13.39,0 23.75,3.32 31.09,9.95 7.34,6.63 11.01,15.91 11.01,27.82 v 68.44 h -24.97 z m -26.71,-23.58 c 4.36,0 8.09,-1.38 11.19,-4.15 3.1,-2.76 4.65,-6.36 4.65,-10.78 v -8.11 l -8.29,0.37 c -11.85,0.43 -17.78,4.79 -17.78,13.08 0,6.4 3.41,9.59 10.23,9.59 z" />
		<path
   style="fill:#ffffff"
   inkscape:connector-curvature="0"
   id="path16"
   d="m 1232.01,477.06 c 0,11.18 -3.81,19.62 -11.42,25.33 -7.62,5.71 -18.55,8.57 -32.79,8.57 -7.74,0 -14.46,-0.41 -20.17,-1.24 -5.71,-0.83 -11.55,-2.35 -17.5,-4.56 v -28.83 c 5.59,2.46 11.71,4.48 18.38,6.08 6.66,1.6 12.6,2.39 17.82,2.39 7.8,0 11.7,-1.78 11.7,-5.34 0,-1.84 -1.09,-3.48 -3.27,-4.93 -2.18,-1.44 -8.52,-4.25 -19.02,-8.43 -9.58,-3.93 -16.27,-8.4 -20.08,-13.4 -3.81,-5 -5.71,-11.34 -5.71,-19.02 0,-9.7 3.75,-17.26 11.24,-22.66 7.49,-5.4 18.09,-8.11 31.78,-8.11 6.88,0 13.34,0.75 19.39,2.26 6.05,1.51 12.33,3.7 18.84,6.59 l -9.76,23.21 c -4.79,-2.15 -9.86,-3.98 -15.2,-5.48 -5.34,-1.5 -9.7,-2.26 -13.08,-2.26 -5.9,0 -8.84,1.44 -8.84,4.33 0,1.78 1.03,3.3 3.09,4.56 2.06,1.26 8,3.82 17.82,7.69 7.31,3.01 12.76,5.96 16.35,8.84 3.59,2.89 6.23,6.28 7.92,10.18 1.66,3.9 2.51,8.65 2.51,14.23 z" />
		<path
   style="fill:#ffffff"
   inkscape:connector-curvature="0"
   id="path18"
   d="m 1239.38,404.75 h 37.95 l 17.69,59.88 c 0.86,3.13 1.44,6.91 1.75,11.33 h 0.74 c 0.49,-4.24 1.23,-7.95 2.21,-11.15 l 18.15,-60.06 h 36.75 l -41.27,111 c -5.28,14.12 -11.78,24.1 -19.48,29.94 -7.71,5.83 -17.76,8.75 -30.17,8.75 -4.79,0 -9.7,-0.52 -14.74,-1.57 V 524.6 c 3.25,0.74 6.97,1.11 11.15,1.11 3.19,0 5.99,-0.61 8.38,-1.84 2.4,-1.23 4.48,-2.96 6.26,-5.2 1.78,-2.24 3.69,-5.91 5.71,-11.01 z" />
	</g>
	<g
   style="fill:#ffffff"
   id="g36">
		<path
   style="fill:#ffffff"
   inkscape:connector-curvature="0"
   id="path22"
   d="m 998.27,643.19 c 0,11.18 -3.81,19.62 -11.42,25.33 -7.62,5.71 -18.55,8.57 -32.79,8.57 -7.74,0 -14.46,-0.41 -20.17,-1.24 -5.71,-0.83 -11.55,-2.35 -17.5,-4.56 v -28.83 c 5.59,2.46 11.71,4.48 18.38,6.08 6.66,1.6 12.6,2.39 17.82,2.39 7.8,0 11.7,-1.78 11.7,-5.34 0,-1.84 -1.09,-3.48 -3.27,-4.93 -2.18,-1.44 -8.52,-4.25 -19.02,-8.43 -9.58,-3.93 -16.27,-8.4 -20.08,-13.4 -3.81,-5 -5.71,-11.34 -5.71,-19.02 0,-9.7 3.75,-17.26 11.24,-22.66 7.49,-5.4 18.09,-8.11 31.78,-8.11 6.88,0 13.34,0.75 19.39,2.26 6.05,1.51 12.33,3.7 18.84,6.59 l -9.76,23.21 c -4.79,-2.15 -9.86,-3.98 -15.2,-5.48 -5.34,-1.5 -9.7,-2.26 -13.08,-2.26 -5.9,0 -8.84,1.44 -8.84,4.33 0,1.78 1.03,3.3 3.09,4.56 2.06,1.26 8,3.82 17.82,7.69 7.31,3.01 12.76,5.96 16.35,8.84 3.59,2.89 6.23,6.28 7.92,10.18 1.67,3.9 2.51,8.64 2.51,14.23 z" />
		<path
   style="fill:#ffffff"
   inkscape:connector-curvature="0"
   id="path24"
   d="m 1068.65,677.09 c -17.38,0 -30.87,-4.62 -40.48,-13.86 -9.61,-9.24 -14.42,-22.4 -14.42,-39.47 0,-17.62 4.45,-31.15 13.36,-40.58 8.9,-9.43 21.62,-14.14 38.14,-14.14 15.72,0 27.87,4.1 36.43,12.3 8.57,8.2 12.85,20.01 12.85,35.42 v 16.03 h -64.39 c 0.25,5.84 2.38,10.41 6.4,13.73 4.02,3.32 9.5,4.97 16.44,4.97 6.32,0 12.14,-0.6 17.46,-1.8 5.31,-1.2 11.07,-3.24 17.27,-6.13 v 25.88 c -5.65,2.89 -11.48,4.88 -17.5,5.99 -6.03,1.11 -13.21,1.66 -21.56,1.66 z m -2.12,-83.55 c -4.24,0 -7.78,1.34 -10.64,4.01 -2.86,2.67 -4.53,6.86 -5.02,12.57 h 30.95 c -0.12,-5.03 -1.55,-9.06 -4.28,-12.07 -2.74,-3 -6.4,-4.51 -11.01,-4.51 z" />
		<path
   style="fill:#ffffff"
   inkscape:connector-curvature="0"
   id="path26"
   d="m 1197.89,569.04 c 3.13,0 6.11,0.25 8.94,0.74 l 2.03,0.37 -3.22,33.99 c -2.95,-0.74 -7.03,-1.11 -12.25,-1.11 -7.86,0 -13.57,1.8 -17.13,5.39 -3.56,3.59 -5.34,8.77 -5.34,15.52 v 51.31 H 1134.9 V 570.88 h 26.81 l 5.62,16.67 h 1.75 c 3.01,-5.53 7.2,-9.99 12.57,-13.4 5.35,-3.41 10.77,-5.11 16.24,-5.11 z" />
		<path
   style="fill:#ffffff"
   inkscape:connector-curvature="0"
   id="path28"
   d="m 1250.76,675.25 -39.79,-104.37 h 37.58 l 17.69,61.72 c 0.06,0.31 0.18,0.83 0.37,1.57 0.18,0.74 0.37,1.61 0.55,2.63 0.18,1.01 0.35,2.09 0.51,3.22 0.15,1.14 0.23,2.2 0.23,3.18 h 0.64 c 0,-3.19 0.55,-6.66 1.66,-10.41 l 18.52,-61.9 h 37.49 l -39.79,104.37 h -35.66 z" />
		<path
   style="fill:#ffffff"
   inkscape:connector-curvature="0"
   id="path30"
   d="m 1337.9,544.9 c 0,-5.4 1.5,-9.43 4.51,-12.07 3.01,-2.64 7.86,-3.96 14.55,-3.96 6.69,0 11.57,1.35 14.65,4.05 3.07,2.7 4.61,6.69 4.61,11.98 0,10.56 -6.42,15.84 -19.25,15.84 -12.71,0.01 -19.07,-5.27 -19.07,-15.84 z m 36.94,130.35 h -36.02 V 570.88 h 36.02 z" />
		<path
   style="fill:#ffffff"
   inkscape:connector-curvature="0"
   id="path32"
   d="m 1447.52,677.09 c -17.07,0 -30.02,-4.61 -38.83,-13.82 -8.81,-9.21 -13.22,-22.44 -13.22,-39.7 0,-17.32 4.76,-30.74 14.28,-40.25 9.52,-9.52 23.06,-14.28 40.62,-14.28 12.1,0 23.49,2.64 34.18,7.92 l -10.59,26.62 c -4.36,-1.9 -8.38,-3.42 -12.07,-4.56 -3.68,-1.14 -7.52,-1.7 -11.51,-1.7 -5.83,0 -10.35,2.27 -13.54,6.82 -3.19,4.55 -4.79,10.96 -4.79,19.25 0,16.7 6.17,25.06 18.52,25.06 10.56,0 20.69,-3.07 30.4,-9.21 v 28.65 c -9.29,6.13 -20.43,9.2 -33.45,9.2 z" />
		<path
   style="fill:#ffffff"
   inkscape:connector-curvature="0"
   id="path34"
   d="m 1552.07,677.09 c -17.38,0 -30.87,-4.62 -40.48,-13.86 -9.61,-9.24 -14.42,-22.4 -14.42,-39.47 0,-17.62 4.45,-31.15 13.36,-40.58 8.9,-9.43 21.61,-14.14 38.14,-14.14 15.72,0 27.86,4.1 36.43,12.3 8.57,8.2 12.85,20.01 12.85,35.42 v 16.03 h -64.39 c 0.24,5.84 2.38,10.41 6.4,13.73 4.02,3.32 9.5,4.97 16.44,4.97 6.32,0 12.14,-0.6 17.46,-1.8 5.31,-1.2 11.07,-3.24 17.27,-6.13 v 25.88 c -5.65,2.89 -11.48,4.88 -17.5,5.99 -6.02,1.11 -13.21,1.66 -21.56,1.66 z m -2.12,-83.55 c -4.24,0 -7.78,1.34 -10.64,4.01 -2.86,2.67 -4.53,6.86 -5.02,12.57 h 30.95 c -0.12,-5.03 -1.55,-9.06 -4.28,-12.07 -2.73,-3 -6.4,-4.51 -11.01,-4.51 z" />
	</g>
</g><g
         inkscape:export-ydpi="96"
         inkscape:export-xdpi="96"
         style="fill:#ffffff"
         transform="matrix(1.3669474,0,0,1.3669474,-358.64981,-198.14882)"
         id="g52">
	<g
   style="fill:#ffffff"
   id="g42">
		<path
   style="fill:#ffffff"
   inkscape:connector-curvature="0"
   id="path40"
   d="m 823.92,563.15 v -46.3 l 37.87,-34.19 c 4.18,-3.78 5.54,-9.78 3.38,-14.99 l -28.24,-68.19 c -2.16,-5.21 -7.35,-8.48 -12.99,-8.21 l -50.95,2.6 -32.74,-32.74 2.6,-50.95 c 0.29,-5.63 -3,-10.83 -8.21,-12.99 l -68.19,-28.25 c -5.21,-2.16 -11.21,-0.8 -14.99,3.38 l -34.19,37.87 h -46.3 L 536.78,272.32 C 533,268.14 527,266.78 521.79,268.94 l -68.19,28.24 c -5.21,2.16 -8.5,7.36 -8.21,12.99 l 2.6,50.95 -32.74,32.74 -50.95,-2.6 c -5.63,-0.28 -10.83,3 -12.99,8.21 l -28.24,68.19 c -2.16,5.21 -0.8,11.21 3.38,14.99 l 37.87,34.19 v 46.3 l -37.87,34.19 c -4.18,3.78 -5.54,9.78 -3.38,14.99 l 28.24,68.19 c 2.16,5.21 7.36,8.5 12.99,8.21 l 50.95,-2.6 32.75,32.74 -2.6,50.95 c -0.29,5.63 3,10.83 8.21,12.99 l 68.19,28.24 c 5.21,2.16 11.21,0.8 14.99,-3.38 l 34.19,-37.87 h 46.3 l 34.19,37.87 c 2.58,2.86 6.2,4.4 9.89,4.4 1.71,0 3.45,-0.33 5.1,-1.01 l 68.19,-28.24 c 5.21,-2.16 8.5,-7.36 8.21,-12.99 l -2.6,-50.95 32.74,-32.74 50.95,2.6 c 5.64,0.28 10.83,-3 12.99,-8.21 l 28.24,-68.19 c 2.16,-5.21 0.8,-11.21 -3.38,-14.99 z m -8.02,98.48 -47.48,-2.43 c -3.78,-0.19 -7.44,1.22 -10.1,3.89 l -41.11,41.11 c -2.67,2.67 -4.08,6.34 -3.88,10.1 l 2.43,47.47 -50.81,21.05 -31.85,-35.28 c -2.53,-2.8 -6.12,-4.4 -9.89,-4.4 h -58.14 c -3.77,0 -7.36,1.6 -9.89,4.4 l -31.85,35.28 -50.81,-21.05 2.43,-47.47 c 0.19,-3.77 -1.22,-7.44 -3.89,-10.1 l -41.11,-41.11 c -2.67,-2.67 -6.33,-4.08 -10.1,-3.89 l -47.47,2.43 -21.05,-50.81 35.28,-31.85 c 2.8,-2.53 4.4,-6.12 4.4,-9.89 v -58.14 c 0,-3.77 -1.6,-7.36 -4.4,-9.89 l -35.28,-31.85 21.05,-50.81 47.47,2.43 c 3.77,0.19 7.44,-1.22 10.1,-3.89 l 41.11,-41.11 c 2.67,-2.67 4.08,-6.34 3.89,-10.1 l -2.43,-47.47 50.81,-21.05 31.85,35.28 c 2.53,2.8 6.12,4.4 9.89,4.4 h 58.14 c 3.77,0 7.36,-1.6 9.89,-4.4 l 31.85,-35.28 50.81,21.05 -2.43,47.47 c -0.19,3.77 1.22,7.44 3.88,10.1 l 41.11,41.11 c 2.67,2.67 6.33,4.08 10.1,3.89 l 47.48,-2.43 21.05,50.81 -35.28,31.85 c -2.8,2.53 -4.4,6.12 -4.4,9.89 v 58.14 c 0,3.77 1.6,7.36 4.4,9.89 l 35.28,31.85 z" />
	</g>
	<g
   style="fill:#ffffff"
   id="g50">
		<path
   style="fill:#ffffff"
   inkscape:connector-curvature="0"
   id="path44"
   d="m 543.56,636.72 c -1.98,-0.28 -2.31,-1.12 -2.44,-3.14 -0.37,-6.09 -1.84,-11.89 -6.03,-16.2 -3.82,-3.92 -9.14,-6.39 -14.97,-6.36 -2.75,0.01 -2.31,-1.64 -2.39,-3.43 -0.26,-5.47 -2.19,-10.53 -5.87,-14.33 -3.73,-3.8 -8.85,-6.44 -14.47,-6.33 -1.8,0.03 -2.76,-0.73 -2.91,-3.7 -0.28,-5.38 -2.24,-10.33 -5.86,-14.06 -4.21,-4.33 -10.01,-6.71 -16.31,-6.71 -6.69,0 -13.14,2.63 -18.17,7.43 -10.24,9.82 -15.75,26.78 -6.79,37.05 3.58,4.09 7.74,6.07 12.73,6.07 1.56,0 3.08,-0.2 4.56,-0.5 1.32,-0.27 3.16,-0.06 2.59,2.42 -1.06,4.63 -1.6,9.86 3.24,15.99 3.24,4.1 7.44,6.18 12.51,6.18 1.36,0 2.71,-0.15 4.02,-0.38 1.65,-0.29 4.39,-0.77 3.45,2.79 -1.23,4.63 -1.38,9.88 3.26,15.54 3.26,3.95 7.7,5.95 13.2,5.95 1.49,0 2.99,-0.15 4.46,-0.39 1.63,-0.26 4.09,-0.02 3.01,3.69 -1.46,5 -1.38,10.75 3.81,16.61 3.48,3.96 8.73,6.06 15.18,6.06 0,0 0,0 0,0 8.6,0 18.07,-3.74 24.14,-9.53 5.07,-4.85 8.05,-11.49 8.18,-18.22 0.12,-6.1 -2.08,-11.8 -6.19,-16.04 -4.09,-4.15 -9.81,-5.59 -15.94,-6.46 z"
   class="st0" />
		<path
   style="fill:#ffffff"
   inkscape:connector-curvature="0"
   id="path46"
   d="m 630.42,508.75 c -6.59,-6.59 -12.34,-7.09 -22.98,-2.49 -10.64,4.6 -26.9,13.45 -34.05,16.82 -0.04,0.02 -0.08,0.04 -0.12,0.06 -9.37,4.91 -16.4,6.66 -19.62,6.66 -18.09,-0.12 -32.81,-14.81 -32.81,-32.75 0,-11.3 5.8,-21.67 15.53,-27.73 0.04,-0.03 0.08,-0.05 0.12,-0.08 13.96,-9.66 46.49,-26.99 46.82,-27.16 0.79,-0.42 1.36,-1.17 1.55,-2.06 0.18,-0.88 -0.03,-1.8 -0.59,-2.5 -0.45,-0.56 -11.18,-13.83 -34.31,-13.83 -22.56,0 -67.46,29.25 -69.32,30.47 -0.06,0.04 -5.66,3.48 -14.45,3.48 -4.71,0 -9.52,-0.98 -14.29,-2.91 -0.05,-0.02 -0.09,-0.04 -0.14,-0.05 l -35.69,-12.43 c -0.93,-0.32 -1.95,-0.18 -2.76,0.39 -0.8,0.57 -1.28,1.49 -1.28,2.47 v 124.04 c 0,1.35 0.89,2.54 2.19,2.91 0.1,0.03 10.15,2.95 19.04,6.58 0.77,0.32 1.63,0.3 2.39,-0.04 0.76,-0.34 1.34,-0.98 1.62,-1.76 1.99,-5.68 5.12,-10.62 9.26,-14.65 6.75,-6.43 16.15,-10.12 25.79,-10.12 9.38,0 18.17,3.52 24.12,9.64 3.82,3.97 6.44,8.63 7.8,13.85 0.26,1.02 1.04,1.82 2.04,2.14 5.11,1.58 9.74,4.4 13.39,8.16 3.79,3.91 6.42,8.55 7.81,13.82 0.27,1.01 1.04,1.82 2.04,2.13 5.09,1.57 9.72,4.4 13.39,8.17 4.1,4.23 6.96,9.48 8.28,15.18 0.25,1.07 1.05,1.92 2.11,2.23 5.29,1.54 10.12,4.44 13.98,8.37 7.22,7.42 10.37,17.87 8.65,28.68 -0.14,0.88 0.11,1.77 0.69,2.45 0.1,0.11 0.2,0.21 0.3,0.31 1.26,1.43 5.52,6.13 8.18,8.81 3.53,3.54 8.25,5.48 13.27,5.48 5.02,0 9.74,-1.95 13.29,-5.49 3.64,-3.66 5.46,-8.46 5.47,-13.27 0,-2.71 2.49,-3.95 3.88,-3.14 2.83,1.64 6.06,2.52 9.42,2.52 5.02,0 9.73,-1.94 13.28,-5.48 4.66,-4.66 5.99,-10.4 4.69,-16.44 -0.39,-1.82 0.76,-3.58 3.01,-2.31 2.98,1.69 6.3,2.72 9.77,2.72 4.95,0 9.61,-1.92 13.09,-5.41 5.4,-5.4 6.38,-12.92 3.07,-19.55 -0.76,-1.53 0.33,-3.2 2.63,-2.24 2.18,0.91 4.2,2.15 6.5,2.15 5.02,0 11.06,-2.96 14.61,-6.49 7.29,-7.29 8.73,-19.59 1.44,-26.94 -0.21,-0.19 -68.99,-70.26 -72.1,-73.37 z" />
		<path
   style="fill:#ffffff"
   inkscape:connector-curvature="0"
   id="path48"
   d="m 772.52,454.21 c -0.34,0.08 -34.55,7.73 -56.16,12.3 -1.2,0.25 -2.4,0.38 -3.56,0.38 -5.16,0 -8.26,-2.44 -8.33,-2.5 -0.17,-0.15 -17.36,-14.95 -36.4,-30.97 -9.36,-7.89 -16.69,-11.4 -23.78,-11.4 -4.52,0 -8.94,1.33 -14.81,4.45 -18.09,9.61 -63.44,35.03 -85.08,48.15 -9.91,5.54 -14.93,12.9 -14.93,21.87 0,5.23 2.56,10.97 6.84,15.37 4.73,4.86 10.89,7.53 17.36,7.53 4.21,0 8.45,-1.12 12.5,-3.28 8.73,-4.24 25.4,-13.17 42.48,-22.17 4.01,-2.11 7.93,-3.19 11.68,-3.19 7.18,0 11.34,3.89 11.48,4.02 0.59,0.59 59.67,59.33 76.23,75.21 5.16,4.96 11.83,7.48 19.8,7.48 4.38,0 44.98,-8.74 45.93,-8.92 1.42,-0.28 2.45,-1.53 2.45,-2.98 v -108.4 c 0,-0.92 -0.42,-1.79 -1.14,-2.37 -0.72,-0.56 -1.66,-0.78 -2.56,-0.58 z"
   class="st0" />
	</g>
</g></g></g></g>
</svg>