<?xml version="1.0" encoding="UTF-8" standalone="no"?>
<!-- Created with Inkscape (http://www.inkscape.org/) -->

<svg
   xmlns:dc="http://purl.org/dc/elements/1.1/"
   xmlns:cc="http://creativecommons.org/ns#"
   xmlns:rdf="http://www.w3.org/1999/02/22-rdf-syntax-ns#"
   xmlns:svg="http://www.w3.org/2000/svg"
   xmlns="http://www.w3.org/2000/svg"
   xmlns:sodipodi="http://sodipodi.sourceforge.net/DTD/sodipodi-0.dtd"
   xmlns:inkscape="http://www.inkscape.org/namespaces/inkscape"
   width="228"
   height="321"
   viewBox="0 0 60.324999 84.931256"
   version="1.1"
   id="svg8"
   inkscape:version="0.92.5 (2060ec1f9f, 2020-04-08)"
   sodipodi:docname="negociacao_branco.svg">
  <defs
     id="defs2">
    <pattern
       patternUnits="userSpaceOnUse"
       width="384.69429"
       height="505.64148"
       patternTransform="matrix(0.26458333,0,0,0.26458333,56.641726,79.823972)"
       id="pattern193">
      <g
         transform="matrix(3.7795276,0,0,3.7795276,291.63535,-430.26831)"
         id="g175">
        <path
           inkscape:connector-curvature="0"
           id="path179"
           d="m -64.618621,246.93999 c -0.899668,-0.35092 -1.956395,-1.22727 -2.348285,-1.94745 -0.391889,-0.72019 -0.905248,-9.46426 -1.140797,-19.43128 -0.235548,-9.96702 -0.869549,-21.09735 -1.40889,-24.73406 -0.88599,-5.97413 -1.246036,-6.89662 -3.731076,-9.55953 -4.891564,-5.24167 -4.971465,-6.54159 -1.499595,-24.39726 1.731079,-8.90286 3.640299,-16.66166 4.426343,-17.98803 1.728493,-2.91667 7.044436,-5.59955 11.053314,-5.57844 4.073184,0.0215 8.788695,2.2074 10.872099,5.03994 2.152771,2.92685 2.585732,6.62678 1.905704,16.28545 -0.574048,8.15341 -0.997191,8.81225 -4.098317,6.38121 l -1.623187,-1.27245 1.290465,-7.24482 c 1.226478,-6.8856 1.225398,-7.3775 -0.02179,-9.92065 -2.326806,-4.74462 -7.602349,-6.71762 -12.57919,-4.7045 -1.492686,0.60379 -3.319571,1.99258 -4.059744,3.08619 -1.498598,2.2142 -4.699028,17.66153 -4.736603,22.8619 -0.03568,4.93761 1.841997,6.73117 11.91218,11.37857 4.759974,2.19673 8.782843,4.0929 8.939707,4.21371 0.156866,0.12081 -0.223137,1.29145 -0.844451,2.60141 -0.752292,1.58613 -1.296475,6.01397 -1.629027,13.25488 -1.036345,22.56511 -1.955253,37.71617 -2.362886,38.95954 -0.440387,1.34328 -4.025752,3.47905 -5.707087,3.39966 -0.535222,-0.0253 -1.709222,-0.33307 -2.608887,-0.68399 z m 65.654586,-0.20698 c -2.42589,-1.18651 -3.87194,-5.47053 -3.58923,-10.6334 l 0.21982,-4.01448 h 5.99006 5.99007 l 0.22531,5.05896 c 0.29302,6.57917 -0.16013,8.09393 -2.81963,9.42534 -2.65553,1.32943 -3.58128,1.3546 -6.0164,0.16358 z m -21.37676,-19.55434 c -0.20521,-0.5177 -0.28079,-6.80179 -0.16798,-13.96464 l 0.20513,-13.02337 5.95459,-0.21435 c 6.62832,-0.23861 7.89744,-0.84761 7.89744,-3.78962 0,-1.5255 0.62269,-2.36994 2.56616,-3.48004 2.81176,-1.60606 2.74552,-1.37052 4.00537,-14.24253 0.61263,-6.25923 0.53928,-6.79741 -1.94764,-14.29085 -2.4854,-7.48885 -2.53584,-7.85821 -1.31863,-9.65664 2.17334,-3.21115 7.2416,-3.98813 9.42221,-1.44446 0.97207,1.13391 3.73324,16.17795 3.74024,20.37842 0.003,1.63888 -0.69885,6.3206 -1.55906,10.40381 l -1.56404,7.42401 1.93842,1.95873 c 1.06612,1.0773 1.93841,2.63487 1.93841,3.46127 0,2.40316 1.55764,3.04968 7.89743,3.2779 l 5.95459,0.21435 v 13.77261 13.77261 l -22.29477,0.19204 c -17.73234,0.15274 -22.37112,-5.9e-4 -22.66787,-0.74925 z m 27.30707,-25.27751 c 0.99777,-0.89991 1.55727,-2.30591 1.55727,-3.91337 0,-3.02216 -1.51079,-3.34103 -3.30055,-0.69663 -0.8569,1.26607 -1.90309,1.81219 -3.47158,1.81219 -1.66813,0 -2.46425,-0.4657 -3.09796,-1.81219 -1.09464,-2.32582 -2.69777,-2.32327 -3.30145,0.005 -1.35065,5.20978 7.18937,8.59564 11.61427,4.60472 z m -44.15087,-10.39511 c -2.246354,-0.90138 -5.768985,-2.47157 -7.828071,-3.48929 -2.059085,-1.01774 -7.672893,-3.63661 -12.475129,-5.81974 -11.881391,-5.40136 -11.687876,-5.04602 -9.555204,-17.54576 1.884987,-11.04805 3.071434,-13.38962 6.78436,-13.38962 5.870931,0 6.876421,2.39843 5.212779,12.43422 -0.698038,4.21086 -1.136044,8.04272 -0.973346,8.51524 0.162697,0.47253 5.738197,3.48946 12.390001,6.70429 6.651803,3.21484 12.68383,6.3502 13.40451,6.96747 1.51762,1.29987 1.74124,4.74657 0.37438,5.77046 -1.96141,1.46928 -3.37653,1.44086 -7.33428,-0.14727 z m 49.70799,-0.77589 c -0.24514,-0.61845 0.14922,-4.70424 0.87634,-9.07954 1.31014,-7.88338 1.30686,-8.04153 -0.36463,-17.54107 -0.92768,-5.27229 -2.15926,-10.57889 -2.73684,-11.79245 -2.87515,-6.04096 -12.97443,-6.15746 -16.73069,-0.19299 -1.95514,3.10452 -1.91035,4.42923 0.43103,12.74951 1.90196,6.75879 1.92584,7.11882 1.01604,15.32025 -0.51243,4.61934 -1.19177,8.68093 -1.50964,9.02574 -0.67711,0.73453 -2.56381,-2.57804 -3.24706,-5.70106 -1.03654,-4.73777 -2.49644,-28.10291 -1.91253,-30.60929 0.85804,-3.6831 2.88579,-6.09567 6.71578,-7.99027 3.56646,-1.76424 7.63647,-2.08301 10.98014,-0.85998 2.69368,0.98528 6.16475,4.14539 7.11516,6.47775 1.2711,3.11936 5.84388,27.73057 5.84684,31.46835 0.005,5.80911 -4.97701,12.5167 -6.47994,8.72505 z m -36.94521,-2.11309 c 0,-1.04972 -0.53408,-2.90845 -1.18686,-4.1305 -0.65276,-1.22205 -0.90547,-2.48078 -0.56156,-2.79719 1.03222,-0.94965 10.78738,-5.97474 11.03929,-5.68658 0.12837,0.14686 0.43948,2.26519 0.69137,4.70742 l 0.45797,4.44041 -4.65649,2.44589 c -2.56106,1.34525 -4.91011,2.55463 -5.2201,2.68752 -0.30999,0.1329 -0.56362,-0.61724 -0.56362,-1.66697 z M -56.381706,139.02 c -6.054474,-2.73891 -9.084474,-10.19672 -6.650031,-16.36789 4.300663,-10.90192 19.918446,-11.89954 25.06801,-1.60127 3.012672,6.02483 1.345447,12.86285 -4.120201,16.89872 -3.599848,2.65816 -9.767349,3.1199 -14.297778,1.07044 z m 42.802971,0.35836 c -2.76372,-1.16581 -6.90738,-5.6084 -7.5527,-8.09754 -0.96379,-3.71753 0.0946,-9.5092 2.23394,-12.22456 6.08538,-7.72385 18.79135,-6.68538 23.38325,1.91113 1.83821,3.44132 1.48769,9.49783 -0.76507,13.21926 -3.24164,5.355 -11.22944,7.75221 -17.29942,5.19171 z"
           style="fill:#4c4c4c;stroke-width:0.73671949" />
      </g>
    </pattern>
  </defs>
  <sodipodi:namedview
     id="base"
     pagecolor="#ffffff"
     bordercolor="#666666"
     borderopacity="1.0"
     inkscape:pageopacity="0.0"
     inkscape:pageshadow="2"
     inkscape:zoom="0.98994949"
     inkscape:cx="-49.897538"
     inkscape:cy="168.97069"
     inkscape:document-units="px"
     inkscape:current-layer="layer1"
     showgrid="false"
     fit-margin-top="0"
     fit-margin-left="0"
     fit-margin-right="0"
     fit-margin-bottom="0"
     inkscape:object-nodes="false"
     inkscape:window-width="1366"
     inkscape:window-height="740"
     inkscape:window-x="0"
     inkscape:window-y="28"
     inkscape:window-maximized="1"
     units="px" />
  <metadata
     id="metadata5">
    <rdf:RDF>
      <cc:Work
         rdf:about="">
        <dc:format>image/svg+xml</dc:format>
        <dc:type
           rdf:resource="http://purl.org/dc/dcmitype/StillImage" />
        <dc:title></dc:title>
      </cc:Work>
    </rdf:RDF>
  </metadata>
  <g
     inkscape:label="Camada 1"
     inkscape:groupmode="layer"
     id="layer1"
     transform="translate(-48.820841,-139.3126)">
    <rect
       style="fill:none;stroke:none"
       width="101.7837"
       height="133.78432"
       x="56.641727"
       y="79.823975"
       id="rect197" />
    <g
       id="g201"
       transform="matrix(0.57458426,0,0,0.57458426,94.074947,77.490945)"
       style="fill:#ffffff;fill-opacity:1">
      <path
         style="fill:#ffffff;fill-opacity:1;stroke-width:0.73671949"
         d="m -64.618621,246.93999 c -0.899668,-0.35092 -1.956395,-1.22727 -2.348285,-1.94745 -0.391889,-0.72019 -0.905248,-9.46426 -1.140797,-19.43128 -0.235548,-9.96702 -0.869549,-21.09735 -1.40889,-24.73406 -0.88599,-5.97413 -1.246036,-6.89662 -3.731076,-9.55953 -4.891564,-5.24167 -4.971465,-6.54159 -1.499595,-24.39726 1.731079,-8.90286 3.640299,-16.66166 4.426343,-17.98803 1.728493,-2.91667 7.044436,-5.59955 11.053314,-5.57844 4.073184,0.0215 8.788695,2.2074 10.872099,5.03994 2.152771,2.92685 2.585732,6.62678 1.905704,16.28545 -0.574048,8.15341 -0.997191,8.81225 -4.098317,6.38121 l -1.623187,-1.27245 1.290465,-7.24482 c 1.226478,-6.8856 1.225398,-7.3775 -0.02179,-9.92065 -2.326806,-4.74462 -7.602349,-6.71762 -12.57919,-4.7045 -1.492686,0.60379 -3.319571,1.99258 -4.059744,3.08619 -1.498598,2.2142 -4.699028,17.66153 -4.736603,22.8619 -0.03568,4.93761 1.841997,6.73117 11.91218,11.37857 4.759974,2.19673 8.782843,4.0929 8.939707,4.21371 0.156866,0.12081 -0.223137,1.29145 -0.844451,2.60141 -0.752292,1.58613 -1.296475,6.01397 -1.629027,13.25488 -1.036345,22.56511 -1.955253,37.71617 -2.362886,38.95954 -0.440387,1.34328 -4.025752,3.47905 -5.707087,3.39966 -0.535222,-0.0253 -1.709222,-0.33307 -2.608887,-0.68399 z m 65.654586,-0.20698 c -2.42589,-1.18651 -3.87194,-5.47053 -3.58923,-10.6334 l 0.21982,-4.01448 h 5.99006 5.99007 l 0.22531,5.05896 c 0.29302,6.57917 -0.16013,8.09393 -2.81963,9.42534 -2.65553,1.32943 -3.58128,1.3546 -6.0164,0.16358 z m -21.37676,-19.55434 c -0.20521,-0.5177 -0.28079,-6.80179 -0.16798,-13.96464 l 0.20513,-13.02337 5.95459,-0.21435 c 6.62832,-0.23861 7.89744,-0.84761 7.89744,-3.78962 0,-1.5255 0.62269,-2.36994 2.56616,-3.48004 2.81176,-1.60606 2.74552,-1.37052 4.00537,-14.24253 0.61263,-6.25923 0.53928,-6.79741 -1.94764,-14.29085 -2.4854,-7.48885 -2.53584,-7.85821 -1.31863,-9.65664 2.17334,-3.21115 7.2416,-3.98813 9.42221,-1.44446 0.97207,1.13391 3.73324,16.17795 3.74024,20.37842 0.003,1.63888 -0.69885,6.3206 -1.55906,10.40381 l -1.56404,7.42401 1.93842,1.95873 c 1.06612,1.0773 1.93841,2.63487 1.93841,3.46127 0,2.40316 1.55764,3.04968 7.89743,3.2779 l 5.95459,0.21435 v 13.77261 13.77261 l -22.29477,0.19204 c -17.73234,0.15274 -22.37112,-5.9e-4 -22.66787,-0.74925 z m 27.30707,-25.27751 c 0.99777,-0.89991 1.55727,-2.30591 1.55727,-3.91337 0,-3.02216 -1.51079,-3.34103 -3.30055,-0.69663 -0.8569,1.26607 -1.90309,1.81219 -3.47158,1.81219 -1.66813,0 -2.46425,-0.4657 -3.09796,-1.81219 -1.09464,-2.32582 -2.69777,-2.32327 -3.30145,0.005 -1.35065,5.20978 7.18937,8.59564 11.61427,4.60472 z m -44.15087,-10.39511 c -2.246354,-0.90138 -5.768985,-2.47157 -7.828071,-3.48929 -2.059085,-1.01774 -7.672893,-3.63661 -12.475129,-5.81974 -11.881391,-5.40136 -11.687876,-5.04602 -9.555204,-17.54576 1.884987,-11.04805 3.071434,-13.38962 6.78436,-13.38962 5.870931,0 6.876421,2.39843 5.212779,12.43422 -0.698038,4.21086 -1.136044,8.04272 -0.973346,8.51524 0.162697,0.47253 5.738197,3.48946 12.390001,6.70429 6.651803,3.21484 12.68383,6.3502 13.40451,6.96747 1.51762,1.29987 1.74124,4.74657 0.37438,5.77046 -1.96141,1.46928 -3.37653,1.44086 -7.33428,-0.14727 z m 49.70799,-0.77589 c -0.24514,-0.61845 0.14922,-4.70424 0.87634,-9.07954 1.31014,-7.88338 1.30686,-8.04153 -0.36463,-17.54107 -0.92768,-5.27229 -2.15926,-10.57889 -2.73684,-11.79245 -2.87515,-6.04096 -12.97443,-6.15746 -16.73069,-0.19299 -1.95514,3.10452 -1.91035,4.42923 0.43103,12.74951 1.90196,6.75879 1.92584,7.11882 1.01604,15.32025 -0.51243,4.61934 -1.19177,8.68093 -1.50964,9.02574 -0.67711,0.73453 -2.56381,-2.57804 -3.24706,-5.70106 -1.03654,-4.73777 -2.49644,-28.10291 -1.91253,-30.60929 0.85804,-3.6831 2.88579,-6.09567 6.71578,-7.99027 3.56646,-1.76424 7.63647,-2.08301 10.98014,-0.85998 2.69368,0.98528 6.16475,4.14539 7.11516,6.47775 1.2711,3.11936 5.84388,27.73057 5.84684,31.46835 0.005,5.80911 -4.97701,12.5167 -6.47994,8.72505 z m -36.94521,-2.11309 c 0,-1.04972 -0.53408,-2.90845 -1.18686,-4.1305 -0.65276,-1.22205 -0.90547,-2.48078 -0.56156,-2.79719 1.03222,-0.94965 10.78738,-5.97474 11.03929,-5.68658 0.12837,0.14686 0.43948,2.26519 0.69137,4.70742 l 0.45797,4.44041 -4.65649,2.44589 c -2.56106,1.34525 -4.91011,2.55463 -5.2201,2.68752 -0.30999,0.1329 -0.56362,-0.61724 -0.56362,-1.66697 z M -56.381706,139.02 c -6.054474,-2.73891 -9.084474,-10.19672 -6.650031,-16.36789 4.300663,-10.90192 19.918446,-11.89954 25.06801,-1.60127 3.012672,6.02483 1.345447,12.86285 -4.120201,16.89872 -3.599848,2.65816 -9.767349,3.1199 -14.297778,1.07044 z m 42.802971,0.35836 c -2.76372,-1.16581 -6.90738,-5.6084 -7.5527,-8.09754 -0.96379,-3.71753 0.0946,-9.5092 2.23394,-12.22456 6.08538,-7.72385 18.79135,-6.68538 23.38325,1.91113 1.83821,3.44132 1.48769,9.49783 -0.76507,13.21926 -3.24164,5.355 -11.22944,7.75221 -17.29942,5.19171 z"
         id="path199"
         inkscape:connector-curvature="0" />
    </g>
  </g>
</svg>
