<?xml version="1.0" encoding="UTF-8" standalone="no"?>
<!-- Created with Inkscape (http://www.inkscape.org/) -->

<svg
   xmlns:dc="http://purl.org/dc/elements/1.1/"
   xmlns:cc="http://creativecommons.org/ns#"
   xmlns:rdf="http://www.w3.org/1999/02/22-rdf-syntax-ns#"
   xmlns:svg="http://www.w3.org/2000/svg"
   xmlns="http://www.w3.org/2000/svg"
   xmlns:sodipodi="http://sodipodi.sourceforge.net/DTD/sodipodi-0.dtd"
   xmlns:inkscape="http://www.inkscape.org/namespaces/inkscape"
   width="32"
   height="32"
   viewBox="0 0 8.4666667 8.4666667"
   version="1.1"
   id="svg86"
   sodipodi:docname="icon_home.svg"
   inkscape:version="0.92.5 (2060ec1f9f, 2020-04-08)">
  <defs
     id="defs80" />
  <sodipodi:namedview
     id="base"
     pagecolor="#ffffff"
     bordercolor="#666666"
     borderopacity="1.0"
     inkscape:pageopacity="0.0"
     inkscape:pageshadow="2"
     inkscape:zoom="5.6"
     inkscape:cx="10.739672"
     inkscape:cy="5.7873505"
     inkscape:document-units="mm"
     inkscape:current-layer="layer1"
     showgrid="false"
     units="px"
     inkscape:window-width="1366"
     inkscape:window-height="740"
     inkscape:window-x="0"
     inkscape:window-y="28"
     inkscape:window-maximized="1" />
  <metadata
     id="metadata83">
    <rdf:RDF>
      <cc:Work
         rdf:about="">
        <dc:format>image/svg+xml</dc:format>
        <dc:type
           rdf:resource="http://purl.org/dc/dcmitype/StillImage" />
        <dc:title></dc:title>
      </cc:Work>
    </rdf:RDF>
  </metadata>
  <g
     inkscape:label="Camada 1"
     inkscape:groupmode="layer"
     id="layer1"
     transform="translate(0,-288.53333)">
    <g
       id="g52"
       transform="matrix(0.01552772,0,0,0.01552772,-4.9731761,284.45741)"
       style="fill:#ffffff;stroke:none"
       inkscape:export-xdpi="96"
       inkscape:export-ydpi="96">
      <g
         id="g42"
         style="fill:#ffffff;stroke:none">
        <path
           d="m 823.92,563.15 v -46.3 l 37.87,-34.19 c 4.18,-3.78 5.54,-9.78 3.38,-14.99 l -28.24,-68.19 c -2.16,-5.21 -7.35,-8.48 -12.99,-8.21 l -50.95,2.6 -32.74,-32.74 2.6,-50.95 c 0.29,-5.63 -3,-10.83 -8.21,-12.99 l -68.19,-28.25 c -5.21,-2.16 -11.21,-0.8 -14.99,3.38 l -34.19,37.87 h -46.3 L 536.78,272.32 C 533,268.14 527,266.78 521.79,268.94 l -68.19,28.24 c -5.21,2.16 -8.5,7.36 -8.21,12.99 l 2.6,50.95 -32.74,32.74 -50.95,-2.6 c -5.63,-0.28 -10.83,3 -12.99,8.21 l -28.24,68.19 c -2.16,5.21 -0.8,11.21 3.38,14.99 l 37.87,34.19 v 46.3 l -37.87,34.19 c -4.18,3.78 -5.54,9.78 -3.38,14.99 l 28.24,68.19 c 2.16,5.21 7.36,8.5 12.99,8.21 l 50.95,-2.6 32.75,32.74 -2.6,50.95 c -0.29,5.63 3,10.83 8.21,12.99 l 68.19,28.24 c 5.21,2.16 11.21,0.8 14.99,-3.38 l 34.19,-37.87 h 46.3 l 34.19,37.87 c 2.58,2.86 6.2,4.4 9.89,4.4 1.71,0 3.45,-0.33 5.1,-1.01 l 68.19,-28.24 c 5.21,-2.16 8.5,-7.36 8.21,-12.99 l -2.6,-50.95 32.74,-32.74 50.95,2.6 c 5.64,0.28 10.83,-3 12.99,-8.21 l 28.24,-68.19 c 2.16,-5.21 0.8,-11.21 -3.38,-14.99 z m -8.02,98.48 -47.48,-2.43 c -3.78,-0.19 -7.44,1.22 -10.1,3.89 l -41.11,41.11 c -2.67,2.67 -4.08,6.34 -3.88,10.1 l 2.43,47.47 -50.81,21.05 -31.85,-35.28 c -2.53,-2.8 -6.12,-4.4 -9.89,-4.4 h -58.14 c -3.77,0 -7.36,1.6 -9.89,4.4 l -31.85,35.28 -50.81,-21.05 2.43,-47.47 c 0.19,-3.77 -1.22,-7.44 -3.89,-10.1 l -41.11,-41.11 c -2.67,-2.67 -6.33,-4.08 -10.1,-3.89 l -47.47,2.43 -21.05,-50.81 35.28,-31.85 c 2.8,-2.53 4.4,-6.12 4.4,-9.89 v -58.14 c 0,-3.77 -1.6,-7.36 -4.4,-9.89 l -35.28,-31.85 21.05,-50.81 47.47,2.43 c 3.77,0.19 7.44,-1.22 10.1,-3.89 l 41.11,-41.11 c 2.67,-2.67 4.08,-6.34 3.89,-10.1 l -2.43,-47.47 50.81,-21.05 31.85,35.28 c 2.53,2.8 6.12,4.4 9.89,4.4 h 58.14 c 3.77,0 7.36,-1.6 9.89,-4.4 l 31.85,-35.28 50.81,21.05 -2.43,47.47 c -0.19,3.77 1.22,7.44 3.88,10.1 l 41.11,41.11 c 2.67,2.67 6.33,4.08 10.1,3.89 l 47.48,-2.43 21.05,50.81 -35.28,31.85 c -2.8,2.53 -4.4,6.12 -4.4,9.89 v 58.14 c 0,3.77 1.6,7.36 4.4,9.89 l 35.28,31.85 z"
           id="path40"
           inkscape:connector-curvature="0"
           style="fill:#ffffff;stroke:none" />
      </g>
      <g
         id="g50"
         style="fill:#ffffff;stroke:none">
        <path
           class="st0"
           d="m 543.56,636.72 c -1.98,-0.28 -2.31,-1.12 -2.44,-3.14 -0.37,-6.09 -1.84,-11.89 -6.03,-16.2 -3.82,-3.92 -9.14,-6.39 -14.97,-6.36 -2.75,0.01 -2.31,-1.64 -2.39,-3.43 -0.26,-5.47 -2.19,-10.53 -5.87,-14.33 -3.73,-3.8 -8.85,-6.44 -14.47,-6.33 -1.8,0.03 -2.76,-0.73 -2.91,-3.7 -0.28,-5.38 -2.24,-10.33 -5.86,-14.06 -4.21,-4.33 -10.01,-6.71 -16.31,-6.71 -6.69,0 -13.14,2.63 -18.17,7.43 -10.24,9.82 -15.75,26.78 -6.79,37.05 3.58,4.09 7.74,6.07 12.73,6.07 1.56,0 3.08,-0.2 4.56,-0.5 1.32,-0.27 3.16,-0.06 2.59,2.42 -1.06,4.63 -1.6,9.86 3.24,15.99 3.24,4.1 7.44,6.18 12.51,6.18 1.36,0 2.71,-0.15 4.02,-0.38 1.65,-0.29 4.39,-0.77 3.45,2.79 -1.23,4.63 -1.38,9.88 3.26,15.54 3.26,3.95 7.7,5.95 13.2,5.95 1.49,0 2.99,-0.15 4.46,-0.39 1.63,-0.26 4.09,-0.02 3.01,3.69 -1.46,5 -1.38,10.75 3.81,16.61 3.48,3.96 8.73,6.06 15.18,6.06 0,0 0,0 0,0 8.6,0 18.07,-3.74 24.14,-9.53 5.07,-4.85 8.05,-11.49 8.18,-18.22 0.12,-6.1 -2.08,-11.8 -6.19,-16.04 -4.09,-4.15 -9.81,-5.59 -15.94,-6.46 z"
           id="path44"
           inkscape:connector-curvature="0"
           style="fill:#ffffff;stroke:none" />
        <path
           d="m 630.42,508.75 c -6.59,-6.59 -12.34,-7.09 -22.98,-2.49 -10.64,4.6 -26.9,13.45 -34.05,16.82 -0.04,0.02 -0.08,0.04 -0.12,0.06 -9.37,4.91 -16.4,6.66 -19.62,6.66 -18.09,-0.12 -32.81,-14.81 -32.81,-32.75 0,-11.3 5.8,-21.67 15.53,-27.73 0.04,-0.03 0.08,-0.05 0.12,-0.08 13.96,-9.66 46.49,-26.99 46.82,-27.16 0.79,-0.42 1.36,-1.17 1.55,-2.06 0.18,-0.88 -0.03,-1.8 -0.59,-2.5 -0.45,-0.56 -11.18,-13.83 -34.31,-13.83 -22.56,0 -67.46,29.25 -69.32,30.47 -0.06,0.04 -5.66,3.48 -14.45,3.48 -4.71,0 -9.52,-0.98 -14.29,-2.91 -0.05,-0.02 -0.09,-0.04 -0.14,-0.05 l -35.69,-12.43 c -0.93,-0.32 -1.95,-0.18 -2.76,0.39 -0.8,0.57 -1.28,1.49 -1.28,2.47 v 124.04 c 0,1.35 0.89,2.54 2.19,2.91 0.1,0.03 10.15,2.95 19.04,6.58 0.77,0.32 1.63,0.3 2.39,-0.04 0.76,-0.34 1.34,-0.98 1.62,-1.76 1.99,-5.68 5.12,-10.62 9.26,-14.65 6.75,-6.43 16.15,-10.12 25.79,-10.12 9.38,0 18.17,3.52 24.12,9.64 3.82,3.97 6.44,8.63 7.8,13.85 0.26,1.02 1.04,1.82 2.04,2.14 5.11,1.58 9.74,4.4 13.39,8.16 3.79,3.91 6.42,8.55 7.81,13.82 0.27,1.01 1.04,1.82 2.04,2.13 5.09,1.57 9.72,4.4 13.39,8.17 4.1,4.23 6.96,9.48 8.28,15.18 0.25,1.07 1.05,1.92 2.11,2.23 5.29,1.54 10.12,4.44 13.98,8.37 7.22,7.42 10.37,17.87 8.65,28.68 -0.14,0.88 0.11,1.77 0.69,2.45 0.1,0.11 0.2,0.21 0.3,0.31 1.26,1.43 5.52,6.13 8.18,8.81 3.53,3.54 8.25,5.48 13.27,5.48 5.02,0 9.74,-1.95 13.29,-5.49 3.64,-3.66 5.46,-8.46 5.47,-13.27 0,-2.71 2.49,-3.95 3.88,-3.14 2.83,1.64 6.06,2.52 9.42,2.52 5.02,0 9.73,-1.94 13.28,-5.48 4.66,-4.66 5.99,-10.4 4.69,-16.44 -0.39,-1.82 0.76,-3.58 3.01,-2.31 2.98,1.69 6.3,2.72 9.77,2.72 4.95,0 9.61,-1.92 13.09,-5.41 5.4,-5.4 6.38,-12.92 3.07,-19.55 -0.76,-1.53 0.33,-3.2 2.63,-2.24 2.18,0.91 4.2,2.15 6.5,2.15 5.02,0 11.06,-2.96 14.61,-6.49 7.29,-7.29 8.73,-19.59 1.44,-26.94 -0.21,-0.19 -68.99,-70.26 -72.1,-73.37 z"
           id="path46"
           inkscape:connector-curvature="0"
           style="fill:#ffffff;stroke:none" />
        <path
           class="st0"
           d="m 772.52,454.21 c -0.34,0.08 -34.55,7.73 -56.16,12.3 -1.2,0.25 -2.4,0.38 -3.56,0.38 -5.16,0 -8.26,-2.44 -8.33,-2.5 -0.17,-0.15 -17.36,-14.95 -36.4,-30.97 -9.36,-7.89 -16.69,-11.4 -23.78,-11.4 -4.52,0 -8.94,1.33 -14.81,4.45 -18.09,9.61 -63.44,35.03 -85.08,48.15 -9.91,5.54 -14.93,12.9 -14.93,21.87 0,5.23 2.56,10.97 6.84,15.37 4.73,4.86 10.89,7.53 17.36,7.53 4.21,0 8.45,-1.12 12.5,-3.28 8.73,-4.24 25.4,-13.17 42.48,-22.17 4.01,-2.11 7.93,-3.19 11.68,-3.19 7.18,0 11.34,3.89 11.48,4.02 0.59,0.59 59.67,59.33 76.23,75.21 5.16,4.96 11.83,7.48 19.8,7.48 4.38,0 44.98,-8.74 45.93,-8.92 1.42,-0.28 2.45,-1.53 2.45,-2.98 v -108.4 c 0,-0.92 -0.42,-1.79 -1.14,-2.37 -0.72,-0.56 -1.66,-0.78 -2.56,-0.58 z"
           id="path48"
           inkscape:connector-curvature="0"
           style="fill:#ffffff;stroke:none" />
      </g>
    </g>
  </g>
</svg>
